<?xml version="1.0" standalone="no"?>
<!DOCTYPE svg PUBLIC "-//W3C//DTD SVG 1.1//EN" "http://www.w3.org/Graphics/SVG/1.1/DTD/svg11.dtd" >
<svg xmlns="http://www.w3.org/2000/svg">
<metadata></metadata>
<defs>
<font id="heavy_equipmentregular" horiz-adv-x="434" >
<font-face units-per-em="2048" ascent="1536" descent="-512" />
<missing-glyph horiz-adv-x="1024" />
<glyph horiz-adv-x="0" />
<glyph unicode="&#xd;" horiz-adv-x="1024" />
<glyph unicode=" "  horiz-adv-x="1024" />
<glyph unicode="&#x09;" horiz-adv-x="1024" />
<glyph unicode="&#xa0;" horiz-adv-x="1024" />
<glyph unicode="!" d="M113 41l12 156q0 29 5 48t30 25h131q4 0 9 -1t10 -11t8.5 -31.5t3.5 -62.5q0 -68 -5.5 -97.5t-14.5 -40t-19.5 -12.5t-18.5 -14q0 2 -8 2q-10 0 -27.5 -2t-38.5 -2q-29 0 -52 8t-25 35zM113 492q0 76 2 113.5t4 56t4 25.5t2 24q0 18 1 65t3 100.5t3 100.5t1 65 q0 12 -1 58.5t-3 99.5t-3 100.5t-1 59.5q0 29 5 48t30 26h131h4q20 0 26.5 -45.5t6.5 -104.5v-81.5t-1 -19.5t-2 10t-2 5t-2.5 -32.5t-2.5 -102.5t-1 -207v-344q0 -25 -6 -34t-14 -12t-17.5 -5t-15.5 -10q0 2 -8 2q-10 0 -27.5 -2t-38.5 -2q-29 0 -52 8t-25 35z" />
<glyph unicode="&#x22;" horiz-adv-x="688" d="M78 1094q0 37 12 111.5t35 172.5v6q0 12 4 19.5t8 11.5q6 6 13 8l163 11h2q2 0 3 1t4 1q4 0 10 -4.5t6 -14.5q0 -2 -1 -4t-1 -6q-18 -98 -35 -182t-31 -150q-12 -35 -55 -41v-2l-4 2q-23 -6 -49 -6q-47 0 -65.5 15.5t-18.5 50.5zM365 1094q0 37 12 111.5t35 172.5v6 q0 12 4 19.5t8 11.5q6 6 12 8l164 11h2q2 0 3 1t3 1q4 0 10.5 -4.5t6.5 -14.5q0 -2 -1 -4t-1 -6q-18 -98 -35 -182t-31 -150q-12 -35 -55 -41v-2l-4 2q-23 -6 -49 -6q-47 0 -65.5 15.5t-18.5 50.5z" />
<glyph unicode="$" horiz-adv-x="950" d="M61 1008q0 53 6.5 77.5t6.5 51.5q0 29 20.5 52t20.5 48q27 35 55.5 67.5t67.5 61.5q16 0 33.5 20.5t39.5 20.5q12 0 23.5 6t34.5 12v56q0 29 5 48t29 25h132q8 2 23 -11t15 -30v-25t-1 -9t-2 -15.5t-3 -46.5q33 -12 68 -31q70 -53 106.5 -82.5t36.5 -78.5q-6 0 -15 -17.5 t-26 -17.5q0 -4 -37.5 -12.5t-76.5 -34.5q-16 0 -21.5 1t-13.5 7q-6 2 -18.5 13.5t-30 23.5t-41 21.5t-52.5 9.5q-12 4 -40.5 -3.5t-40.5 -17.5q-6 0 -20.5 -11t-30 -28.5t-27 -38t-11.5 -39.5v-58.5t6.5 -37.5t19.5 -33.5t42 -44.5q10 0 34.5 -20.5t67.5 -20.5 q6 -2 24.5 -7t40 -10t40 -10t24.5 -8q16 0 34 -8t35.5 -17t34.5 -17.5t32 -10.5q6 0 18 -11t25.5 -25.5t28 -29l22.5 -22.5q6 -6 18.5 -22.5t24.5 -38t21.5 -47t9.5 -47.5q8 -31 11 -78t3 -90q2 -33 -20.5 -87.5t-63.5 -109.5t-95.5 -101t-111.5 -63v-61q0 -25 -6 -34 t-14.5 -12t-17.5 -5.5t-15 -10.5q-2 4 -25.5 1t-51.5 -3t-50.5 8.5t-24.5 34.5v88q-20 6 -45 23q-2 0 -18.5 8t-44 24.5t-62 43t-71.5 65.5q-51 53 -62.5 93t-11.5 57q0 16 5 32.5t22 20.5q45 16 67.5 25.5t34.5 12.5t19.5 3h19.5q23 -29 36 -50.5t20 -39t14.5 -29.5 t17.5 -22q27 -37 56.5 -44.5t72.5 -23.5q37 -2 54.5 0t28.5 6t22.5 11.5t35.5 15.5q6 0 14.5 7t15.5 16t13 18.5t13 11.5q14 33 23 49t9 39v29.5t-3 41t-9 43t-20 36.5q-25 37 -60 59t-73.5 35.5t-79.5 24t-78 22.5q-14 0 -27.5 7t-28 16.5t-31 16.5t-36.5 7q-2 0 -9.5 5 l-16.5 11t-17 11.5t-10 7.5q-10 8 -33 27.5t-45.5 50t-40 73.5t-17.5 99z" />
<glyph unicode="'" horiz-adv-x="448" d="M90 1090q0 37 12.5 111.5t34.5 172.5v6q0 12 4 19.5t9 11.5q6 6 12 8l164 11h2q2 0 3 1t3 1q4 0 10 -4.5t6 -14.5q0 -2 -1 -4t-1 -6q-18 -98 -34.5 -182t-30.5 -150q-12 -35 -56 -41v-2l-4 2q-23 -6 -49 -6q-47 0 -65.5 15.5t-18.5 50.5z" />
<glyph unicode="(" horiz-adv-x="573" d="M88 633q0 20 2 55t5 75t5 77t2 61v4q0 18 10.5 51t10.5 56q4 18 13 57t26.5 84t44 89t67.5 73q2 2 22.5 19.5t51.5 39t64.5 39t62.5 19.5q12 -10 27 -31v-164q-18 -12 -25 -25h-10q-8 0 -21.5 -17t-27.5 -17l-6 -7q-4 -6 -15.5 -22t-24 -35.5t-21.5 -40t-9 -33.5l-4 -11 t-9 -26.5t-9.5 -30t-4.5 -22.5q0 -35 -14 -72.5t-14 -64.5q0 -16 -1 -31.5t-1 -27.5q0 -41 2 -70t3 -52.5t3 -44t2 -44.5q0 -16 7 -53t18.5 -78t25.5 -79t31 -59q8 -6 20.5 -21t27.5 -30.5t32.5 -27t34.5 -11.5l10 -10v-160q-6 -4 -15 -12q-16 2 -25 3t-22 1l-84 35 q-23 0 -43 22.5t-32 32.5l-15 6q-14 4 -39.5 58.5t-76.5 154.5q0 2 -5.5 21.5t-12.5 41t-12 42t-5 26.5q0 43 -13.5 98.5t-13.5 88.5z" />
<glyph unicode=")" horiz-adv-x="573" d="M88 14v160l10 10q16 0 34 11.5t33 27t27.5 30.5t20.5 21q14 20 29.5 58.5t27 79.5t18.5 77.5t7 53.5q0 25 2 45t3 43.5t3 52.5t2 70q0 12 -1 27.5t-1 31.5q0 27 -14.5 64.5t-14.5 72.5q0 8 -4 22.5t-9 30t-9 26.5l-4 11q0 12 -9.5 33t-21.5 40.5t-23.5 35.5t-15.5 22 l-6 7q-14 0 -27.5 17t-21.5 17h-10q-6 12 -25 25v164q14 20 27 31q29 -2 62.5 -19.5t64 -39t51 -39t22.5 -19.5q39 -29 67 -73t45 -89t26.5 -84t13.5 -57q0 -23 10 -55.5t10 -51.5v-4q0 -25 2.5 -61.5t5.5 -76.5t5 -75t2 -55q0 -33 -13.5 -88.5t-13.5 -98.5q0 -6 -5 -26.5 t-12 -42t-12.5 -41t-5.5 -21.5q-51 -100 -76.5 -154.5t-39.5 -58.5l-15 -6q-12 -10 -32.5 -32.5t-43.5 -22.5l-83 -35q-12 0 -21.5 -1t-26.5 -3q-8 8 -14 12z" />
<glyph unicode="+" horiz-adv-x="1042" d="M98 705q0 8 1 27.5t4 41t10.5 41t19.5 29.5q68 4 134.5 6t135.5 4v201q0 29 6.5 46t34.5 46h-2l14 4q15 4 35.5 7t44 6t42.5 3q4 0 17 -2t26.5 -9t24.5 -20.5t11 -37.5q0 -16 -3 -48t-7 -68t-8 -70.5t-4 -55.5q49 2 100 2h105q29 0 46 -6t46 -35v2l4 -14q4 -14 7 -34.5 t6 -44.5t3 -42q0 -4 -2 -17.5t-9 -27.5t-20.5 -24.5t-37.5 -10.5q-16 0 -50 3t-72 8.5t-73 8.5t-53 3q4 -55 6 -98.5t2 -77.5q0 -78 -16.5 -108t-69.5 -30q-20 0 -49 4.5t-64 10.5q-10 2 -15 7t-11 13q-4 68 -6 136.5t-4 140.5q-109 -6 -172 -7q-78 0 -108 16.5t-30 70.5z " />
<glyph unicode="," horiz-adv-x="370" d="M51 61q0 37 12.5 112t34.5 173v6q0 12 4 19.5t9 11.5q6 6 12 8l164 10h2q2 0 3 1t3 1q4 0 10 -4t6 -14q0 -2 -1 -4t-1 -6q-18 -98 -34.5 -182t-30.5 -150q-12 -35 -56 -41v-2l-4 2q-23 -6 -49 -6q-47 0 -65.5 15.5t-18.5 49.5z" />
<glyph unicode="-" horiz-adv-x="305" d="M66 903q0 18 18 30.5t84 12.5q4 0 12 -1t19 -3q10 -2 22 -2l17 -18v-23q0 -27 -1 -72t-2.5 -99t-2.5 -113.5t-1 -114.5q-4 -8 -16.5 -14.5t-24.5 -6.5q-16 -8 -36 -8q-23 0 -42.5 6t-31.5 10q-4 10 -6 58.5t-4 107t-2 111.5v74q2 6 2 20q0 12 -2 23.5t-2 21.5z" />
<glyph unicode="." d="M113 41l12 156q0 29 5 48t30 25h131h4q10 0 18.5 -17t8.5 -89q0 -20 -1.5 -46t-3.5 -57q-2 -25 -8 -34t-14 -12t-16.5 -5t-14.5 -10q0 2 -8 2q-10 0 -27.5 -2t-38.5 -2q-29 0 -52 8t-25 35z" />
<glyph unicode="/" horiz-adv-x="598" d="M51 61q0 43 17.5 133.5t44 208t59.5 253t63.5 269.5t56 256t38.5 214q4 16 22.5 28.5t26.5 12.5h131q23 -8 22 -35q0 -8 -1 -18.5t-3 -20.5q-45 -152 -85 -333t-75.5 -360.5t-66 -343t-57.5 -282.5q-12 -35 -56 -41v-2l-4 2q-23 -6 -49 -6q-47 0 -65.5 15.5t-18.5 49.5z " />
<glyph unicode="0" horiz-adv-x="931" d="M61 526v348q0 18 5.5 45t12.5 57t12 58.5t5 50.5q0 33 13.5 78t33.5 66q0 2 7.5 20.5t28 46t59 59t104.5 58.5q27 10 63.5 15.5t73.5 5.5q35 0 68 -5.5t69 -21.5q10 0 23.5 -10.5t27 -21.5t26 -20t18.5 -9q2 -2 20.5 -18.5t37.5 -41t35.5 -53.5t16.5 -57q10 -37 19.5 -76 t13.5 -76q0 -31 10 -114t10 -205q2 -41 -1 -76t-7 -68t-8 -64.5t-4 -66.5q0 -57 -22.5 -108.5t-30.5 -102.5q-16 -12 -25.5 -39.5t-30.5 -48.5q-35 -47 -75.5 -73.5t-85.5 -39t-92.5 -15.5t-94.5 -3q-14 -2 -35.5 9t-39.5 11q-31 14 -51.5 24.5t-38 23t-34 32t-40.5 52.5 q0 2 -8.5 16t-19.5 31.5t-19.5 36t-8.5 30.5q-8 35 -15 74t-12 76t-8.5 65.5t-5.5 44.5zM260 526q0 -29 10.5 -60.5t10.5 -62.5q0 -20 7 -37.5t16 -33t16.5 -28.5t7.5 -23q2 -10 12 -18.5t22.5 -14.5t24.5 -13.5t23 -15.5q12 0 34.5 -3t55.5 -3q2 -4 10 0t18.5 11t20.5 14.5 t18 7.5q23 23 32 42t30 40q4 29 16 59.5t12 56.5q0 59 10.5 116.5t10.5 94.5v219q2 61 -16.5 113.5t-18.5 97.5q0 43 -39 84t-104 54q-41 2 -62.5 -3.5t-36 -15.5t-30 -26.5t-43.5 -36.5q-27 -49 -40.5 -112.5t-21.5 -119.5q0 -41 -1 -78.5t-2 -81.5t-2 -97.5t-1 -125.5z " />
<glyph unicode="1" horiz-adv-x="573" d="M82 1255q0 6 4 28t4 28q25 39 45.5 63.5t35.5 36.5t25.5 16.5t14.5 4.5h156q6 -4 16 -8.5t10 -24.5v-1149q2 -6 6 -24.5t15 -22.5q35 -23 52 -34t21 -34v-72.5t-2 -34t-6 -11.5t-12 -5q-12 0 -23.5 1t-25.5 1q-16 0 -25 -2l-270 -12l-21 6q-6 0 -8 6q-2 2 -4 6v136 q2 20 14.5 26t26.5 10.5t28.5 10.5t24.5 28v947l-8 20q0 8 -11 13t-26.5 11.5t-32 14.5t-24.5 20z" />
<glyph unicode="2" horiz-adv-x="978" d="M82 68q0 70 17.5 148.5t62.5 166.5q10 27 22 49q10 20 23.5 40t30.5 32q2 2 12 17.5t24.5 32.5t31 34.5t32.5 23.5q14 18 49 44t77 55.5t85 61.5t72 61q4 6 16 18l16 16l9 12q10 13 21 30.5t19.5 36t6.5 28.5v47t-9.5 75t-35 74.5t-76.5 47.5q-78 0 -114 -4.5 t-56.5 -14.5t-38 -28.5t-55.5 -47.5q-4 -31 -21.5 -34t-32.5 -13q-10 4 -43.5 18.5t-97.5 67.5q2 0 0 7.5t-1 20.5t9 31.5t33 43.5q31 31 58.5 53t53 37.5t52 27t57.5 23.5q41 16 88 14t94 -2q16 -8 47 -8t80 -33q2 4 29 -16.5t53 -42.5q20 -12 41 -44t37.5 -69t26.5 -74.5 t10 -62.5q-4 -41 0 -62.5t4 -45t-11 -59.5t-46 -107q-18 -18 -38 -44t-58 -65q-53 -37 -104.5 -79t-97.5 -82t-83 -73.5t-57 -54.5q2 -6 -6.5 -13t-18.5 -18.5t-20.5 -23.5t-10.5 -27l-6 -18l-3 -9t-2 -8.5t-1 -17.5q0 2 -2 -8t6 -23.5t33.5 -24.5t83.5 -11h397 q20 -14 29.5 -23.5t13.5 -19t4 -22.5v-36v-25.5t-3 -30.5t-11 -26.5t-27 -11.5h-747q-29 18 -31 29.5t-2 38.5z" />
<glyph unicode="3" horiz-adv-x="989" d="M82 385q0 33 28.5 51.5t118.5 30.5q6 -2 15.5 -1t18.5 1t15.5 -3t6.5 -11q2 -41 9 -70t15 -49.5t16.5 -33.5t12.5 -21q37 -82 203 -82l10 2t23.5 6t24.5 10t15 14q18 18 38 35t35 38.5t25.5 52t10.5 77.5q0 82 1 117t-13 53q-12 25 -23 47q-10 16 -21.5 31.5t-23.5 15.5 q-6 0 -16.5 7.5t-24.5 15.5t-29.5 14t-31.5 4h-203q-6 4 -16.5 8.5t-10.5 26.5q-2 41 1 65.5t7.5 40t8.5 24.5t4 18q31 43 62.5 79.5t57 65.5t42 50.5t20.5 33.5q6 31 -5 45t-50 31q-111 0 -158 -3t-72 -3q-12 -2 -28.5 13t-18.5 25v136q16 18 21.5 26t10.5 11.5t16.5 3.5 h39.5q10 0 55.5 -1t97.5 -2t97 -2.5t55 -1.5q29 0 71 2.5t82 0t70.5 -9.5t39.5 -27v-156q4 0 -12.5 -22.5t-47.5 -57.5q-8 -10 -29.5 -32.5t-46 -48t-45 -48t-28.5 -33.5l-6 -14q-4 -29 4 -44t23.5 -25.5t35 -16.5t37.5 -16l13 -5q12 -4 29 -14t38.5 -30.5t42.5 -51.5 q0 -4 6 -11t13 -15.5t14.5 -17.5t7.5 -17q14 -25 21 -51.5t12 -57.5q0 -84 -2.5 -132t-5.5 -77.5t-5 -49t-2 -44.5q0 2 -4 -11t-10 -30.5t-14.5 -36t-18.5 -24.5q0 -4 -16.5 -23.5t-38 -41t-41 -39t-25.5 -17.5q-8 -10 -35.5 -25.5t-59.5 -29t-59.5 -21.5t-35.5 -6 q-23 2 -48.5 0t-53 -1t-55.5 6t-52 22l-42 21t-59.5 36.5t-52 44.5t-22.5 41q-14 33 -28.5 53.5t-26 41t-18.5 47t-7 73.5z" />
<glyph unicode="4" horiz-adv-x="919" d="M57 332q0 10 1 28.5t3 39t3.5 38t1.5 27.5q6 6 5 12t2 21.5t15 41t45 72.5q20 35 25.5 49.5t7.5 20.5t4 10t16 23q6 12 26.5 50t47.5 89t57.5 108.5t57 109.5t47 90t27.5 50q39 76 60 121t39.5 67.5t42 30t64.5 7.5q20 0 42 -1t40.5 -4t29.5 -9.5t11 -14.5 q0 -207 -4 -411.5t-4 -411.5q0 -27 5 -49.5t24 -38.5q6 -4 19 -6.5t26.5 -8.5t24 -16t10.5 -29q-2 -6 -2 -24q0 -16 1 -39t1 -41q0 -37 -7 -43q-12 -10 -20 -19q-8 -6 -17.5 -11t-15.5 -5q-25 -4 -24.5 -16.5t-16.5 -51.5v-147q0 -2 1 -3t1 -3q0 -12 -12 -19.5t-27.5 -10.5 t-30 -4t-20.5 -1q-80 0 -103.5 9t-23.5 38q0 23 3 58.5t3 58.5q0 41 -4 60.5t-12 28.5t-21.5 12t-29.5 11h-262q-16 0 -26.5 -1t-25 -2t-33 -2t-49.5 -1l13 6q-6 0 -13.5 -1t-15.5 -1q-14 0 -23.5 10.5t-9.5 47.5zM313 518q0 -16 6.5 -27.5t28.5 -19.5h195q0 4 7 5t14 8.5 t13.5 23.5t6.5 51v115.5t-5.5 106.5t-16.5 79t-36 31q-18 0 -26 -9.5t-15.5 -22.5t-16.5 -30.5t-26 -33.5q-16 -23 -38.5 -66t-44 -87t-36 -80t-10.5 -44z" />
<glyph unicode="5" horiz-adv-x="960" d="M86 279v6q0 14 2 17t6 11q-6 -6 9.5 -1t40 14.5t51 15.5t38.5 4q16 4 27.5 -3t22.5 -17l12 -20q12 -19 32.5 -43.5t47 -45t53.5 -20.5q18 0 43 -3.5t64 -3.5q2 -4 14 1.5t28.5 13.5l33 16t28.5 10q12 18 27.5 28.5t29 28t23.5 47.5t10 87q2 39 -6 91t-8 79 q0 23 -14.5 47.5t-69.5 81.5q-4 -2 -10.5 4t-18.5 13t-31.5 14.5t-50.5 7.5q-55 0 -70.5 -3t-33.5 -3q-6 2 -15.5 -3.5t-20.5 -11.5t-23.5 -12t-24.5 -6h-223l-23 18v674l23 21q27 -2 87 -1t135 2t155.5 2t146 -2t108.5 -13.5t43 -28.5v-144l-20 -20h-418 q-12 -12 -24.5 -18.5t-20.5 -15.5t-13 -25.5t-5 -49.5q0 -59 -1 -90t2 -48t10 -26.5t23 -25.5q39 0 61.5 4t49.5 4q16 -2 46 0t63.5 1t69.5 -6t67 -24q6 0 23.5 -12t35 -25.5t31.5 -24.5l14 -11q4 -4 23.5 -27t42 -56.5t41 -75.5t18.5 -85q0 -80 2 -123t1 -70.5t-6 -51 t-17 -62.5q0 -4 -5.5 -17.5t-12.5 -31t-16 -32t-15 -20.5q-6 -10 -20.5 -28.5t-31 -39t-33 -34.5t-26.5 -14q-43 -18 -68.5 -31.5t-47 -21t-45 -11.5t-62.5 -4q-33 0 -48.5 -1t-34 2t-47 14.5t-87.5 37.5q-25 18 -59 47t-64.5 61t-52 63.5t-21.5 54.5z" />
<glyph unicode="6" horiz-adv-x="1001" d="M61 436q0 37 2.5 61.5t5.5 44t5 36t2 38.5q16 57 31.5 113.5t37.5 114.5q0 12 7.5 27.5t16.5 31t17.5 29.5t8.5 24q10 10 22 31t25.5 45.5t29 48t33.5 41.5q33 33 56.5 57.5t49 49t58.5 53.5t84 68q8 8 30.5 22t47.5 29q29 16 61 33q45 2 53.5 -5.5t22.5 -29.5 q0 -10 8 -23.5t19.5 -31t19.5 -35t8 -35.5q-4 0 -8 -17.5t-18 -17.5q0 2 -14.5 -6t-33 -19.5t-35 -20.5t-22.5 -9q-4 2 -11 -5.5t-16.5 -16.5t-20.5 -17t-21 -8q-6 0 -17.5 -9.5t-24 -21.5t-23.5 -23.5t-17 -15.5q-23 -23 -38.5 -37t-27.5 -28.5t-24.5 -35t-28.5 -53.5 q-2 -27 4 -39t14.5 -18t17.5 -7t13 -5q29 0 65.5 -3t76.5 -13.5t80 -31t75 -55.5q6 -6 28.5 -26.5t45 -53t41 -76.5t18.5 -100q2 -45 0 -72.5t-5 -46t-6 -34t-3 -35.5q-12 -23 -18.5 -42t-11.5 -35.5t-12 -30t-22 -23.5q0 -12 -32.5 -41t-77.5 -57.5t-92.5 -50t-73.5 -17.5 q-59 -2 -91 0t-50.5 5t-29.5 5t-30 2q-10 -2 -51 14.5t-94 69.5q-20 18 -37 44t-39 46q-20 16 -21.5 38t-19.5 46q-4 35 -8 51.5t-7 30t-5.5 30.5t-2.5 54zM262 422q-2 -16 4 -53t25 -58q10 -18 20 -32q10 -12 18.5 -21.5t16.5 -9.5q14 0 39 -16.5t45 -16.5q70 0 124 6 t89 55l11 14q10 15 21 33.5t19 36t4 21.5q-2 23 -1 46.5t-1 48t-11 49t-34 48.5q0 8 -10 19.5t-35.5 23t-66.5 19.5t-103 8q-16 6 -33.5 -10.5t-35.5 -16.5q-2 0 -13.5 -8t-24 -19t-22.5 -22.5t-10 -19.5q0 -6 -7 -19.5t-15.5 -30t-12.5 -36t0 -39.5z" />
<glyph unicode="7" horiz-adv-x="1034" d="M87 1321q-1 25 2 49.5t13.5 44t32.5 19.5h38t81 -2t84 -3.5t45 -1.5q29 0 102.5 -1t156.5 -2t156.5 -2t102.5 -1q10 0 20.5 -11t14.5 -17q0 -59 -3 -91t-3 -75q0 -35 -20.5 -77t-20.5 -83q-2 -6 -6 -21.5t-8.5 -33t-8.5 -32.5t-6 -19q0 -37 -17.5 -69t-17.5 -67 q0 -16 -15 -44.5t-15 -61.5q-29 -94 -55.5 -190.5t-49 -184.5t-43 -165t-35.5 -132q-6 -25 -15 -34t-26 -13h-153l-12 12v17q0 16 -1.5 29.5t13.5 41.5l282 1020q0 8 2 15q2 6 5 10q4 29 -7.5 42t-31 18t-41 4t-39.5 -1q-10 0 -43 -1t-76 -3t-93 -4t-93 -4t-76 -3t-43 -1 q-29 0 -43.5 2t-22.5 11t-9 27.5t-1 53.5q0 10 -1 35z" />
<glyph unicode="8" horiz-adv-x="991" d="M82 436v37t1 25.5t4 22.5t9 26q-2 12 12.5 29.5t14.5 33.5q18 14 37.5 52t75.5 79q4 6 6 11.5t6 9.5q0 6 2 15t-1 24.5t-13.5 36t-34.5 49.5q0 4 -7.5 14t-14.5 20.5t-14 21.5t-7 20q6 4 4 6t-7 13t-11.5 35.5t-6.5 76.5q-4 8 0 21t10.5 29.5t12.5 34t6 33.5q-2 2 3 9.5 t12 16.5t13.5 18.5t6.5 17.5q0 6 8 16t20.5 21.5t25.5 24t21 22.5q8 0 27 20.5t35 20.5q23 16 49.5 23.5t48.5 11.5q14 0 41 1t55.5 0t57 -5.5t47.5 -16.5q70 -41 104.5 -68.5t51 -48t23.5 -37t22 -32.5q-2 -6 2 -15.5t9 -23.5t10 -34.5t5 -51.5q0 -39 -4 -64.5t-9 -42 t-9 -29t-4 -24.5q-12 -8 -15.5 -16t-5.5 -17.5t-7 -19.5t-22 -23q0 -16 -20 -34.5t-20 -40.5v-7q0 -8 2 -18t6 -21.5t12 -17.5l96 -96q-2 2 3 -8.5t11.5 -23.5t11.5 -25.5t3 -18.5q6 -6 7 -15.5t1 -18.5t2 -19t10 -17q0 -29 -1 -47t-2 -33.5t-2 -30t-1 -34.5q0 -27 -8 -46.5 t-17.5 -34.5t-16.5 -29.5t-7 -28.5q-10 -10 -18.5 -28.5t-42.5 -53.5q-6 4 -13.5 -3t-14.5 -17.5t-14 -19.5t-14 -9q-55 -25 -103 -47.5t-112 -22.5q-35 0 -55 1t-35.5 3t-28 3t-26.5 1q-25 0 -51.5 20.5t-46.5 20.5q-16 10 -37 30.5t-39 31.5l-9 10q-10 10 -20 21.5 t-18 21.5l-8 10q-4 6 -19.5 25.5t-15.5 36.5q0 20 -5.5 33.5t-12.5 31.5t-12 49t-5 86zM270 424q0 -37 6.5 -57.5t13.5 -32.5t14 -23.5t7 -31.5q27 -37 61 -53.5t66.5 -21.5t58 -4t35.5 1q25 0 39.5 5t23.5 12t16 12.5t18 5.5q27 14 44 39.5t27.5 53t14.5 54.5t4 41 q0 10 -3 28.5t-10.5 40t-17.5 42t-24 34.5q-41 37 -71 56.5t-87 19.5q-4 6 -15.5 -1t-41.5 -7q0 2 -13.5 -3t-35 -15.5t-46 -29t-43.5 -42.5q-4 -14 -11 -22.5t-13 -19.5t-11.5 -27.5t-5.5 -47.5v-6zM332 1053q0 -16 10 -38t26.5 -42.5t37 -36.5t43.5 -21q55 -2 90.5 4.5 t58.5 22.5t36 43t23 68q6 10 0 30.5t-6 44.5q0 4 -9 21.5t-24.5 36t-34 33t-36.5 14.5h-90q-6 -4 -15 -8q-16 -8 -20 -13q-4 0 -14.5 -7t-21.5 -17t-19.5 -19.5t-8.5 -11.5q-6 -2 -10 -13t-6 -27.5t-4 -34t-6 -29.5z" />
<glyph unicode="9" horiz-adv-x="978" d="M82 983q-4 29 2 66.5t12 72.5q0 27 8.5 46.5t20.5 37t23.5 33.5t17.5 35l84 84q8 0 19.5 9t23.5 19.5t27.5 18.5t31.5 8q29 0 45.5 10.5t38.5 10.5q55 0 91 -1t62.5 -5.5t49.5 -12.5t47 -22q18 -25 45 -30t31 -20q31 -31 47 -49t27.5 -35.5t21.5 -37t29 -52.5 q0 -12 5 -31.5t9 -39t8 -37t4 -29.5q2 -20 1 -44.5t-3 -47t-3 -39t-1 -22.5q8 -12 -3 -28.5t-11 -53.5q0 -14 -6 -37t-14.5 -47.5t-14.5 -45t-6 -30.5q4 -16 -12.5 -33.5t-16.5 -36.5q-27 -68 -49 -109.5t-43.5 -73.5t-45 -59.5t-54.5 -68.5q-39 -41 -70 -72.5t-63.5 -60.5 t-69.5 -55.5t-88 -53.5q-18 -10 -28.5 -12t-26.5 -2q-16 -8 -28.5 7.5t-35.5 47.5q6 2 0 10.5t-15 20.5t-16.5 25.5t-3.5 27.5q0 25 19.5 37t51.5 25.5t71 34t80 61.5q14 4 41.5 36t56.5 54q0 2 11 17.5t25.5 34t25 36t7.5 23.5q2 31 -1 45t-10 20t-14 8t-9 11q-55 2 -90 15 t-78 13q-2 0 -10.5 3t-18.5 8.5t-18.5 8.5t-8.5 1q-4 0 -17 5t-28.5 14t-30 20.5t-20.5 21.5q-4 4 -20.5 23.5t-20.5 25.5q-2 2 -12 14.5t-21.5 28t-20.5 30.5t-9 24q-2 23 -18.5 60.5t-16.5 84.5zM270 989q-2 -23 7.5 -60.5t33.5 -70.5q0 -16 28 -28.5t42 -26.5 q12 -10 40 -16.5t42 -10.5q31 -4 81 4t87 31l46 46t18 24.5t8.5 32t17.5 69.5q4 61 -8.5 97t-33 59.5t-42 37t-35.5 27.5q-45 23 -65.5 20t-24.5 1h-26.5t-36 -2t-38 -8.5t-30.5 -16.5l-17 -9q-18 -9 -38.5 -32.5t-38 -65t-17.5 -102.5z" />
<glyph unicode=":" d="M113 41l12 156q0 29 5 48t30 25h131h4q10 0 18.5 -17t8.5 -89q0 -20 -1.5 -46t-3.5 -57q-2 -25 -8 -34t-14 -12t-16.5 -5t-14.5 -10q0 2 -8 2q-10 0 -27.5 -2t-38.5 -2q-29 0 -52 8t-25 35zM113 641l12 156q0 29 5 48t30 25h131h4q10 0 18.5 -17t8.5 -89q0 -20 -1.5 -46 t-3.5 -56q-2 -25 -8 -34.5t-14 -12.5t-16.5 -5t-14.5 -10q0 2 -8 2q-10 0 -27.5 -2t-38.5 -2q-29 0 -52 8t-25 35z" />
<glyph unicode=";" d="M66 -137q0 37 12 111.5t35 172.5v7q0 12 4 19t8 11q6 6 12 9l164 10h2q2 0 3 1t3 1q4 0 10.5 -4t6.5 -15q0 -2 -1 -4t-1 -6q-18 -98 -35 -182t-31 -150q-12 -35 -55 -41v-2l-4 2q-23 -6 -49 -6q-47 0 -65.5 15.5t-18.5 50.5zM113 641l12 156q0 29 5 48t30 25h131h4 q10 0 18.5 -17t8.5 -89q0 -20 -1.5 -46t-3.5 -56q-2 -25 -8 -34.5t-14 -12.5t-16.5 -5t-14.5 -10q0 2 -8 2q-10 0 -27.5 -2t-38.5 -2q-29 0 -52 8t-25 35z" />
<glyph unicode="=" horiz-adv-x="1048" d="M115 594q0 27 8 52.5t35 25.5h102q27 0 70 -1t92 -3t100 -3t92 -3.5t68 -2.5h29h131q29 0 48 -5t25 -29v-131q0 -4 -4 -13.5t-14 -15.5q-104 0 -276 1t-443 1q-25 0 -34 6t-12 14.5t-5 17.5t-10 15q2 0 2 8q0 10 -2 27.5t-2 38.5zM115 920q0 27 8 52t35 25h102 q27 0 70 -1t92 -3t100 -3t92 -3t68 -2h29h131q29 0 48 -5t25 -30v-131q0 -4 -4 -13t-14 -15q-104 0 -276 1t-443 1q-25 0 -34 6t-12 14t-5 17.5t-10 15.5q2 0 2 8q0 10 -2 27.5t-2 38.5z" />
<glyph unicode="?" horiz-adv-x="786" d="M78 653q0 168 63 232q6 6 16.5 16t20.5 20.5t20.5 17.5t14.5 7q20 2 47 19.5t51 17.5q4 2 17.5 5t30 6t29.5 6.5t18 5.5q33 0 50 14t25 14q20 18 30.5 30.5t15.5 24t5 26.5v40q0 29 -16 47.5t-37.5 28.5t-41 14t-25.5 4q-33 0 -52.5 -8t-34 -17.5t-24.5 -17.5t-25 -8 q-29 16 -57.5 22.5t-28.5 10.5q-10 0 -17 11t-11 11q0 16 17.5 41t50 48.5t78.5 40t104 16.5q45 0 68.5 -7.5t35.5 -16.5t20.5 -16t22.5 -7q29 -20 51.5 -42t40.5 -46q0 -18 6.5 -29.5t13.5 -27t13 -39t6 -64.5q0 -39 -12 -68.5t-29.5 -51t-34 -34t-24.5 -18.5 q-4 -4 -20.5 -14.5t-18.5 -10.5q-29 0 -48.5 -16.5t-41.5 -16.5q-41 -12 -83 -22t-77 -28.5t-57.5 -53.5t-22.5 -96q0 -29 15.5 -51.5t38 -39t47 -24.5t43.5 -8q33 0 68.5 12t51.5 37q8 8 12.5 16.5t10.5 19.5t16.5 26.5t26.5 35.5q-12 0 6 0t44 -6t49.5 -19t23.5 -40 q0 -41 -33 -78t-72 -65.5t-68.5 -44t-25.5 -13.5q-27 -16 -53.5 -21t-48.5 -5h-29h-18q-47 0 -91.5 28.5t-79 68.5t-56 82t-21.5 68zM266 41q2 -27 25.5 -35t52.5 -8q20 0 37.5 2t28.5 2q8 0 8 -2q8 12 18 14t19.5 12.5t14.5 40t5 97.5q0 41 -3 62.5t-8 31.5t-10 11t-10 1 h-131q-25 -6 -29.5 -25.5t-4.5 -47.5z" />
<glyph unicode="A" horiz-adv-x="903" d="M61 47q6 55 20.5 115.5t29 115t25.5 99.5t11 69q6 33 19.5 101.5t29 154.5t32 181.5t31.5 181.5t28.5 154.5t19.5 101.5q0 -2 1 8t6 25.5t15.5 29t30.5 17.5h207q2 0 9.5 -5t15.5 -12.5t15 -17.5t7 -18q2 -12 7.5 -43t9.5 -65t9 -63.5t7 -41.5q0 -10 13.5 -77t31 -160 t37 -198.5t31.5 -191.5q0 -4 2 -13.5t5 -20.5t5 -21.5t2 -12.5q2 -8 7 -41.5t11.5 -71.5t12.5 -72t8 -42q0 -4 4 -23.5t9 -42t9.5 -42t4.5 -25.5q-2 -8 0 -22q1 -7 1 -13.5t-1 -12.5q-2 -14 -13.5 -23t-40.5 -9h-106q-4 0 -13.5 5t-19.5 25.5t-18 59.5t-8 105q0 18 -14.5 26 t-12.5 12h-287l-6 -6q0 -8 -5 -16t-12.5 -25.5t-12.5 -46t-5 -78.5q0 -23 -6 -33t-15 -15t-19.5 -7t-18.5 -6q-55 0 -85 1t-43 6t-15.5 14.5t-2.5 25.5zM346 487q0 -31 17.5 -49t50.5 -18q36 0 66 -1h9q23 0 41 5q20 6 31.5 21.5t11.5 48.5q0 12 -5 48t-12 83t-18.5 99 t-22.5 96t-23.5 72t-24.5 28h-13t-8 -7q-2 -2 -33.5 -105t-66.5 -308v-13z" />
<glyph unicode="B" horiz-adv-x="960" d="M61 53q0 8 3.5 45t3.5 64q6 121 11 262t7 281.5t4 271.5t5 232.5t7 162t13 62.5h458q8 0 23.5 -2t32 -5.5t31 -7.5t20.5 -4q12 -12 33.5 -15t47 -19.5t53.5 -58.5t54 -130q0 -68 -1 -110t-2 -67.5t-2 -43t-1 -35.5q0 -14 -7 -29.5t-16.5 -31t-16.5 -31t-7 -29.5 q-4 -6 -5 -20.5t-1 -20.5q0 -2 8 -19.5t18.5 -37t18.5 -34.5l8 -15q16 -37 21.5 -60.5t5.5 -48.5q0 -59 -1 -98t-2 -66.5t-2 -48t-1 -43.5q-4 -4 -6.5 -18.5t-7.5 -33t-13 -37.5t-20 -32q-6 -4 -16.5 -20.5t-10.5 -20.5q-6 -4 -16.5 -14t-20.5 -21.5t-19.5 -20.5t-11.5 -11 q-27 -20 -59.5 -34.5t-54.5 -25.5q-29 -4 -46.5 -7t-33 -4t-32.5 -2t-44 -1q-23 0 -77 2t-114.5 5t-114.5 5t-77 2q-10 0 -20 12q-8 9 -8 19q0 4 1 8zM270 283q4 -8 6.5 -19.5t11.5 -23t31.5 -18.5t65.5 -7q18 3 36 3q15 0 29 -2q26 -4 54 -4h11q34 1 67.5 16.5t70.5 62.5 q-2 10 5.5 16t16.5 19.5t17 39t8 78.5q0 39 -1 66t-9 48.5t-23.5 43t-45.5 51.5q-35 12 -52.5 19.5t-33 10.5t-38 3h-65.5q-12 0 -35.5 1t-47 0t-41 -8t-17.5 -26q-8 -51 -12.5 -96t-6.5 -88t-2 -89v-97zM283 936q12 -29 31.5 -35t29.5 -12h229q18 0 28.5 4t18 10t14.5 16.5 t19 22.5q0 10 3 15.5t7.5 15.5t7.5 31.5t3 66.5q0 41 -5 67.5t-17.5 43t-32 26t-46.5 17.5h-235q-3 1 -6 1q-16 0 -28 -16q-16 -20 -21 -39v-235z" />
<glyph unicode="C" horiz-adv-x="989" d="M88 633q0 20 2 55t5 75t5 77t2 61q-4 16 8.5 51t12.5 60q4 18 13 57t26.5 84t44 89t67.5 73q2 2 23.5 20.5t53.5 40t67 39t63 17.5q57 0 85 1h10q22 1 40 -3q22 -4 51 -17.5t89 -42.5q2 0 14 -7t26.5 -19.5t29 -26.5t20.5 -29q-2 -4 9 -15t26.5 -30.5t28 -50.5t12.5 -76 q3 -9 3 -17q1 -9 -3 -19q-6 -18 -15.5 -30t-18.5 -18t-14 0l-14 1t-35.5 3t-44 3t-37.5 1l-8 7q-12 49 -30.5 80.5t-36.5 64.5l-15 6q-12 12 -33.5 23.5t-56.5 11.5q-20 2 -32.5 -1t-22.5 -7t-19.5 -8.5t-21.5 -4.5q-8 2 -21.5 -16t-27.5 -18l-6 -7q-4 -6 -15.5 -22 t-24 -35.5t-21.5 -40t-9 -33.5l-4 -11q-4 -11 -9 -26.5t-9.5 -30t-4.5 -22.5q0 -35 -14 -72.5t-14 -64.5q-1 -39 -1 -70v-28q1 -39 3 -68t4 -53.5t2 -50.5q0 -16 7 -53t18.5 -78t25.5 -79t31 -59q12 -10 26.5 -25.5t31 -29.5t37 -24.5t44.5 -10.5q35 0 55.5 1t32.5 8 q10 0 26.5 12t33 29.5t27.5 34t11 26.5q0 29 7.5 45t17.5 25.5t21.5 13.5t21.5 6q23 0 45.5 1t43 -1t35.5 -7t21 -20q2 -4 -3 -33.5t-17 -68.5t-33.5 -79t-50.5 -60q-16 -20 -32.5 -31.5t-35.5 -30.5q-12 0 -22 -8t-23.5 -19.5t-32 -19.5t-47.5 -8q-51 0 -79.5 1t-46 2 t-27.5 2t-25 1l-84 35q-23 0 -43 22.5t-32 32.5l-15 6q-14 4 -39.5 58.5t-76.5 154.5q0 2 -5.5 21.5t-12.5 41t-12 42t-5 26.5q0 43 -13.5 98.5t-13.5 88.5z" />
<glyph unicode="D" horiz-adv-x="989" d="M63 55q0 18 3 41q2 16 3 37t1 37q0 39 1 162t2 293t2 368.5t1 386.5q0 33 20 47q20 0 70.5 1.5t107 2.5t106.5 2t71 1h20q4 0 16.5 -1t25.5 -2t24.5 -2.5t15.5 -1.5q16 0 57 -9t64 -32q39 -27 59.5 -47t33.5 -37.5t24.5 -35t31.5 -35.5q2 2 7.5 -12.5t11.5 -34t12 -40 t10 -30.5q0 -33 13.5 -58.5t13.5 -70.5q10 -43 14 -93t4 -102.5t-2 -106.5t-2 -105q0 -31 -10 -74t-10 -82q0 -12 -5.5 -30.5t-10.5 -37t-9 -33t-2 -16.5q0 -23 -15.5 -48.5t-11.5 -25.5q0 -8 -7 -18t-16 -20.5t-17.5 -20.5t-8.5 -16q-33 -33 -56.5 -55.5t-63.5 -45.5 q-4 0 -20.5 -8t-39 -17.5t-47.5 -16.5t-43 -7q-29 0 -56.5 -1t-58 -2t-68.5 -2t-89 -1q-27 0 -61 -2q-14 -1 -26 -1q-19 0 -35 2q-28 3 -44 15q-12 9 -13 27q0 6 2 14zM272 266q12 -55 70 -55q3 -3 15 -3q5 0 15 1q26 2 58.5 5t61 7t40.5 4l16 7q15 6 32.5 15t32 21.5 t14.5 24.5q0 6 5 11t11 13.5t12.5 22.5t6.5 41q6 35 13 62.5t13 65.5t10 94t4 151q0 53 -7 109.5t-7 148.5q0 25 -6 41t-15.5 31.5t-20.5 32t-19 38.5q0 4 -9.5 14.5t-21.5 20.5t-24.5 18.5t-18.5 8.5q4 0 -9.5 2t-31.5 5t-34 6q-9 2 -13 2q-2 0 -2 -1h-70t-61.5 -7 t-43 -26.5t-16.5 -56.5v-875z" />
<glyph unicode="E" horiz-adv-x="1007" d="M82 33q0 186 1 358t2 338t2 330t1 334q2 10 7 15t14 11q166 8 335.5 11.5t370.5 3.5q29 0 46.5 -6.5t45.5 -34.5q0 6 3 -7.5t7.5 -35t7.5 -46t3 -44.5q0 -2 -2 -15.5t-8.5 -28t-17.5 -25.5t-32 -11q-12 -2 -56 3t-92 10t-87 9t-39 -2q-4 0 -19.5 1t-33 2t-32.5 2t-22 1 q-8 -6 -37.5 -2t-61.5 4t-58.5 -9t-28.5 -40v-180q2 2 3 -9.5t5 -27.5t13.5 -29.5t31.5 -13.5q23 0 74 7t113 7q4 -2 15 0t24.5 2t30 -4t30.5 -18l6 -4t13.5 -21.5t14.5 -52.5t7 -96q0 -6 -6 -16.5t-15.5 -19.5t-20.5 -16.5t-19 -7.5q-14 -2 -39 -1t-53.5 4.5t-59.5 7.5 t-55 10q-2 0 -11.5 -1t-19.5 -2t-19 -2l-10 -1q-2 0 -10 -1t-17.5 -9.5t-17.5 -27t-8 -50.5v-320q0 -10 6 -21.5t21 -11.5q78 0 166 3.5t174 3.5q12 0 35.5 3t49 7t47 7t27.5 3q16 -6 33 -1t31 3t22.5 -19.5t8.5 -68.5q0 -4 -4.5 -20.5t-9.5 -37t-9 -38t-4 -19.5 q-6 -2 -8 -9t-9.5 -15t-23.5 -14.5t-53 -6.5q-104 0 -211 -2t-197 -5t-155.5 -5t-90.5 -2q-5 -1 -10 -1q-13 1 -31 9q-24 12 -24 25z" />
<glyph unicode="F" horiz-adv-x="946" d="M63 1335v19.5t1.5 27t7.5 23.5t18 10h78t119.5 1t141.5 2t141.5 2t119.5 1h80h47q5 -8 17 -2q9 5 17 5q3 0 6 -1q11 -2 19.5 -25.5t8.5 -90.5q-4 -4 -2 -14.5t2 -21.5t-8.5 -23.5t-32.5 -20.5q-104 0 -175 1t-123 2t-98.5 2t-101.5 1q-35 0 -51 -3t-23.5 -11.5 t-11.5 -20.5t-16 -31v-221q2 -16 13 -42.5t34 -31.5h256q14 -4 18 -10t8 -16v-121q-4 -14 -10 -18.5t-16 -8.5h-242q-2 -4 -11 -4t-19.5 -3t-19.5 -14t-11 -38v-256q8 -14 8 -25.5v-33.5q0 -18 -1 -60.5t-3 -90.5t-3 -90t-1 -60q-6 -8 -11.5 -13.5t-15.5 -7.5h-115 q-4 4 -13 4t-19 29q0 12 1 29.5t2 60.5t2 123t1 217q0 92 -6.5 319.5t-6.5 550.5z" />
<glyph unicode="G" horiz-adv-x="978" d="M82 766v81t8 80t26.5 105.5t55.5 161.5q0 6 10.5 26.5t25.5 45t35.5 46t43.5 31.5q4 6 19.5 18.5t38 25t48 22.5t49.5 10q16 0 43 6.5t45 6.5q2 2 7 2q8 0 22 -4q25 -5 59 -5l23 -9t50.5 -20.5t50 -22.5t20.5 -15q27 -29 53.5 -55.5t46 -60.5t31.5 -80t12 -109l-8 -9 h-176q-10 6 -13 18.5t-8 31.5q-4 2 -7 13t-9 26.5t-19.5 34t-37.5 34.5q-6 6 -26.5 11.5t-29.5 9.5h-21q-36 0 -60 -5q-29 -8 -49.5 -21t-34 -32.5t-31.5 -44.5q-20 -29 -31.5 -51t-20 -47t-14.5 -56.5t-16 -76.5q0 -33 -2 -55.5t-4 -42t-4 -36t-2 -36.5q0 -10 1 -47 t7 -88.5t18 -108.5t33 -108q0 -4 14.5 -30t40 -55.5t62.5 -54t82 -24.5q16 2 45.5 3t48.5 23q8 10 22.5 17.5t27.5 22t22.5 39t9.5 71.5v19.5t-3 26.5t-13.5 24.5t-30.5 11.5q-31 0 -45.5 8t-24.5 27v161q2 2 4 7q4 8 10 8q12 0 56.5 -1t93.5 -2t89 -2l40 -1l20 -21 q1 -24 1 -49q0 -51 -3 -108q-4 -85 -4 -162q2 -16 -9 -35t-11 -47q-8 -23 -19 -45q-10 -20 -24.5 -43t-32.5 -41q-2 0 -9 -8.5t-15.5 -18.5t-18.5 -19.5t-18 -9.5q-10 2 -21.5 -7t-32 -20.5t-50.5 -21.5t-73 -10q-10 -1 -21 -1q-20 0 -42 5q-31 8 -66 8q-4 -4 -21.5 8.5 t-31.5 12.5q-45 18 -57.5 25.5t-24.5 15.5q-6 2 -16 12t-21.5 22.5t-21.5 23.5t-17 18q0 14 -19 36.5t-34 57.5q-8 29 -16 53q-8 23 -16.5 45.5t-14.5 36.5q0 14 -6 39.5t-14.5 54.5t-14.5 57.5t-6 53.5q0 41 -4 91t-4 91z" />
<glyph unicode="H" horiz-adv-x="960" d="M61 47v103q0 37 2.5 105.5t4.5 139t4 128t2 71.5q0 18 1 84.5t3 143.5t3 142.5t1 84.5q0 12 -1 58t-3 99.5t-3 100.5t-1 59q0 29 5 48.5t30 25.5h131h2q8 0 22 -12q16 -14 15 -29v-27t-1.5 -9t-3.5 -23.5t-3 -69.5t-3 -147.5t-2 -258.5q6 -2 10.5 -1t8.5 1q31 0 61.5 1 t63.5 1q31 0 62.5 -2t64.5 -6q47 2 80.5 2h62.5q2 66 3 119t1 70q0 12 -1 58t-3 99.5t-3 100.5t-1 59q0 29 5 48.5t30 25.5h131h2q8 0 22 -12q16 -14 15 -29v-26t-1 -8t-2 -19.5t-2.5 -59.5t-2.5 -129t-2 -226.5t-2 -353t-1 -509.5q0 -25 -6 -34t-14 -12.5t-17.5 -5.5 t-15.5 -10q-2 4 -25.5 1t-51 -3t-50 8t-24.5 35v103q0 37 2 105.5t4 139t4 128t2 71.5v76l-352 6h-58v-608q0 -25 -6 -34t-14 -12.5t-17.5 -5.5t-15.5 -10q-2 4 -25.5 1t-51 -3t-50.5 8t-25 35z" />
<glyph unicode="I" d="M113 41v102q0 37 2 105.5t4 139.5t4 128t2 72q0 18 1 84.5t3 143.5t3 142.5t1 83.5q0 12 -1 58.5t-3 99.5t-3 100.5t-1 59.5q0 29 5 48t30 26h131h2q7 0 21 -12q16 -14 16 -29v-26t-1 -8t-2 -19.5t-2 -59.5t-2 -129t-2.5 -226.5t-2.5 -353.5t-1 -510q0 -25 -6 -34 t-14 -12t-17.5 -5t-15.5 -10q-2 4 -25.5 1t-51 -3t-50 8t-24.5 35z" />
<glyph unicode="J" horiz-adv-x="976" d="M61 258v6q-1 1 -1 3q0 3 4 7q8 5 12 11q2 0 14 5t27.5 12t32 12t28.5 5q14 -2 25.5 1.5t24 2.5t27.5 -10.5t38 -33.5q-6 8 1 -1.5t23.5 -22.5t39 -25.5t44.5 -12.5q16 0 46 -3t57 -3q18 0 41.5 16.5t40.5 16.5q10 12 26.5 26.5t33 35t28.5 50t12 72.5v971q4 4 19.5 18.5 t29.5 16.5q45 0 71 2q10 1 18 1q14 0 24 -2q16 -3 26.5 -12.5t22.5 -29.5q0 -137 -1 -262t-2 -246t-2 -240t-1 -244q0 -27 -6 -60.5t-21 -61.5q2 -8 -3 -18.5t-14 -22t-16.5 -22.5t-7.5 -19q0 -10 -15 -26.5t-34.5 -35t-37 -34t-21.5 -19.5q-8 2 -20.5 -7t-27 -19.5 t-30.5 -19.5t-31 -9q-37 -16 -61.5 -21.5t-48.5 -5.5q-29 0 -47.5 1t-32 2t-24.5 2t-25 1q-37 0 -89.5 26.5t-100.5 65.5t-82 83t-34 77z" />
<glyph unicode="K" horiz-adv-x="966" d="M61 53q0 147 4.5 248.5t9.5 191t9 185.5t4 233q0 10 -1 32t-3 69t-3 123.5t-1 197.5q2 41 21.5 71t91.5 30q29 0 69 -7q12 0 15.5 -26.5t3.5 -61.5q0 -6 -2.5 -36.5t-4.5 -65.5t-4 -65.5t-2 -38.5q0 -82 2 -121t6.5 -54.5t12.5 -17.5t20 -8q18 0 27.5 9t25.5 24 q33 49 64 96q25 41 50.5 84t39.5 76q2 2 15.5 21.5t30 46t33.5 53t28 44.5q0 20 30.5 30.5t116.5 10.5q59 0 73.5 -3t14.5 -19v-19q0 -2 -23.5 -44t-70.5 -89q-23 -31 -49.5 -65.5t-50 -66t-40 -61.5t-16.5 -50q0 -10 1 -19.5t1 -17.5q23 -90 41.5 -154.5t34.5 -119 t31.5 -105.5t35 -111.5t43 -137.5t54.5 -183q25 -49 33 -65.5t8 -30.5q0 -27 -8.5 -41.5t-32.5 -24.5q-66 0 -98.5 3t-47 10t-18.5 18.5t-16 29.5q-10 53 -26.5 123t-33 131.5t-29 102.5t-12.5 39q0 18 -7 38.5t-16 43t-16.5 47t-7.5 51.5q0 20 -10 41.5t-10 26.5 q-20 29 -25.5 33.5t-21.5 4.5q-2 0 -4 1t-5 1q-23 0 -54.5 -36.5t-59 -81.5t-47 -83t-17.5 -40v-436q-4 0 -4 -9.5t-3 -20.5t-11 -20.5t-29 -9.5q-8 0 -23.5 -1t-35.5 -1q-35 0 -68 8.5t-33 38.5z" />
<glyph unicode="L" horiz-adv-x="995" d="M82 52.5v35.5q0 18 1 78.5t2 141.5t3 173t3 173t2 141.5t1 78.5q0 201 -3 327t-3 200q0 6 2 12t14.5 11.5t40 8.5t78.5 3q8 1 15 1q10 0 18 -2q12 -3 19.5 -7.5t13.5 -11.5t16 -15q0 -143 -3 -294t-7 -293t-7 -270t-3 -225q-2 -35 4 -56t15 -32.5t19.5 -15.5t14.5 -4 q27 0 107.5 6t216.5 6q10 0 50 2t85 2t81.5 -6t41.5 -24q2 -2 2 -10q0 -11 -4 -34q-6 -40 -5 -118q2 -4 -1 -9.5t-16 -11.5t-40 -10t-72 -4q-39 0 -79.5 1t-112.5 3t-188 3t-302 1q-10 6 -14 11.5t-5 12.5t-1 20.5z" />
<glyph unicode="M" horiz-adv-x="991" d="M61 35q0 27 3.5 75t3.5 140q8 223 12 383t6 288t2 239.5v240.5q2 16 9 22.5t18 10.5h149q10 -4 16.5 -5.5t22.5 -21.5q-2 12 5 -5.5t18.5 -53t27 -82.5t30.5 -93.5t27.5 -85t20.5 -57.5q14 -39 27.5 -60.5t32.5 -25.5q12 -4 18 2t11 18.5t13.5 32t24.5 41.5 q-6 8 10.5 28.5t16.5 37.5q20 43 39.5 96t38 100.5t37 81t40.5 39.5q6 -2 35 0t59.5 0t55 -12t24.5 -35q0 -23 -2 -50.5t-4 -54t-4 -51t-2 -38.5l-20 -1151q-4 -12 -10.5 -17.5t-16.5 -11.5h-141q-8 4 -16.5 8.5t-18.5 20.5q0 180 13.5 351t13.5 347q0 14 -3.5 37.5 t-10.5 39t-18 14.5t-28 -36q-25 -51 -65.5 -149t-75.5 -209q-2 -8 -8 -14.5t-13 -12.5q0 -2 -13 1t-13 34q-16 51 -38 114.5t-43.5 122t-36.5 99.5t-17 47q-16 6 -22.5 -7t-10.5 -20q0 -8 -13.5 -39.5t-13.5 -80.5q0 -131 3 -259t3 -259q0 -47 -3 -62.5t-3 -32.5 q2 -8 -4 -15t-14 -13.5t-16 -9.5l-7 -3h-121q-6 2 -18 6.5t-23 14.5z" />
<glyph unicode="N" horiz-adv-x="1007" d="M86 88q-1 14 -1 28q0 16 1 30q2 28 2 44q2 45 4 141.5t4 217.5t4 254t5.5 254t5.5 217t4 141q0 10 11 20.5t15 14.5h158q0 -2 9 -6t18.5 -10.5t17.5 -15.5t8 -23q0 -6 6.5 -18.5t13.5 -28t13 -32t6 -30.5q8 -23 26.5 -69t41 -103t48 -121.5t48.5 -122t41 -103.5l27 -69 q31 -33 40 -53t31 -20q6 -4 19.5 5t13.5 54q0 20 1 62t1 95.5t2 111t2 110.5t1 94t1 62q0 27 -1 63v36v34q1 34 5 59t15 25h151q23 0 32 -21.5t9 -46.5q0 -6 -2 -28.5t-5 -49t-5 -49t-2 -29.5q0 -162 -4 -311t-9.5 -293.5t-9.5 -287t-4 -291.5q0 -8 -7 -15.5t-17 -11.5h-146 l-7 2q-7 2 -16.5 7t-16.5 13.5t-7 24.5l-276 690q-4 12 -9.5 27.5t-11.5 28t-15.5 18.5t-23.5 0q-4 2 -25.5 -17.5t-21.5 -62.5v-690q-10 -29 -33 -35h-139q-25 6 -35 28.5t-12 51.5z" />
<glyph unicode="O" horiz-adv-x="985" d="M102 581.5v63.5q0 8 1 37t2 62.5t2.5 62.5t1.5 37q-1 14 -1 29q0 30 5 64q8 50 19 97t21.5 84t10.5 56q8 25 16 43t21.5 37.5t35 44t58.5 61.5q8 8 23.5 15t32 14.5t30.5 14.5t22 17q4 4 56.5 8.5t122.5 4.5q33 0 63.5 -20.5t52.5 -20.5q31 -29 51.5 -43.5t35 -26.5 t26.5 -27.5t25 -46.5q0 -10 17 -34.5t17 -47.5t17.5 -75t17.5 -138v-20q0 -8 1 -47t2 -91.5t2 -107.5t1 -98q0 -2 -1 -18.5t-3 -36t-5 -39t-5 -29.5q-18 -63 -27.5 -110.5t-14.5 -80t-10 -53t-16 -30.5q-33 -53 -60.5 -83t-54 -46.5t-54 -25.5t-58.5 -24q-23 -10 -59.5 -12 t-118.5 -2q-18 0 -53 20.5t-70 34.5q-12 0 -27.5 14.5t-31 35t-29.5 39t-23 28.5q-18 35 -35.5 77t-25.5 107q-10 55 -15 94t-8.5 71t-3.5 60.5zM287 707q0 -117 7 -173.5t7 -87.5q0 -18 6 -52t17.5 -67.5t27 -62t31.5 -37.5q6 -8 26.5 -19t28.5 -15h123q16 4 39 18t37 29 q4 6 14.5 15t20.5 24.5t18 36t8 49.5q23 94 29 138t6 75v315q-2 35 -13 94.5t-28 110.5q0 12 -6 21t-13 18.5t-15.5 19.5t-14.5 25q-35 35 -61.5 44t-67.5 9q-25 0 -52.5 -9t-43.5 -24q-10 -14 -19.5 -22.5t-17.5 -17.5t-17.5 -23.5t-21.5 -40.5q4 -2 -8 -26.5t-12 -49.5 q-4 -25 -10.5 -53.5t-10.5 -55.5q0 -27 -9 -77q-6 -34 -6 -83q0 -21 1 -46z" />
<glyph unicode="P" horiz-adv-x="985" d="M61 53v41q0 10 1 43t2.5 78t3.5 94t3 94.5t2 78t1 42.5q0 248 4 462t4 425q6 14 17.5 15t15.5 6h452q7 1 13 1q18 -1 30 -5q18 -6 35 -14.5t36 -21t50 -22.5q16 -16 33.5 -28.5t34.5 -32.5q4 -8 7 -11.5t9 -12.5t17.5 -29.5t33.5 -61.5q4 -4 12.5 -53t8.5 -140 q0 -37 -13.5 -69.5t-13.5 -59.5q0 -8 -7 -21t-15.5 -25.5t-16.5 -23.5t-8 -18q-47 -47 -83 -82.5t-75 -39.5q4 -6 -8 -8.5t-31.5 -3.5t-41 -4t-35.5 -11q-29 -2 -43.5 2t-32.5 4q-2 -4 -31 -1t-62.5 3t-62 -5t-28.5 -24q-4 -84 -5.5 -188t-4.5 -196.5t-10 -158t-21 -71.5 h-144q-10 4 -21.5 8t-11.5 45zM272 893q0 -16 16.5 -28.5t39.5 -18.5q49 0 94 -3q27 -2 52 -2q17 0 33 1q40 2 73.5 13t60.5 38q27 18 40 45q13 28 19 54q4 21 4 40v10q-2 24 -2 41q0 8 -10 31t-31.5 46.5t-53.5 42t-75 18.5h-192q-23 0 -33 -7.5t-15 -18.5t-9 -24.5 t-11 -25.5v-252z" />
<glyph unicode="Q" horiz-adv-x="985" d="M102 645q0 8 1 37t2 62.5t2.5 62.5t1.5 37q0 6 -1.5 12t-1.5 12q0 43 9.5 89.5t19.5 89.5t19.5 76.5t9.5 50.5q8 25 16 43t21.5 37.5t35 44t58.5 61.5q8 8 23.5 15t32 14.5t30.5 14.5t22 17q4 4 56.5 8.5t122.5 4.5q33 0 63.5 -20.5t52.5 -20.5q31 -29 51.5 -43.5 t35 -26.5t26.5 -27.5t25 -46.5q0 -10 17 -34.5t17 -47.5t17.5 -76t17.5 -139v-18q0 -8 1 -47t2 -91.5t2 -107.5t1 -98q0 -2 -1 -18.5t-3 -36t-5 -39t-5 -29.5q-18 -63 -27.5 -110.5t-14.5 -80t-10 -53t-16 -30.5q-23 -37 -45 -66q10 -18 26.5 -56t47.5 -108q10 -25 10 -31 q0 -18 -8 -28.5t-22 -20.5q-29 -20 -52.5 -28.5t-44.5 -8.5q-25 0 -42 10.5t-27 22.5q-12 14 -19 35q-4 10 -18 38t-33 62q-23 -10 -59.5 -12t-118.5 -2q-18 0 -53 20.5t-70 34.5q-12 0 -27.5 14.5t-31 35t-29.5 39t-23 28.5q-31 55 -48 124t-26.5 135.5t-11.5 123.5t-2 90z M287 707q0 -117 7 -173.5t7 -87.5q0 -18 6 -52t17.5 -67.5t27 -62t31.5 -37.5q6 -8 26.5 -19t28.5 -15h72q-4 0 -7 7t-5 16t-4 18.5t-2 11.5q0 18 16 33l119 55q2 2 10 2q18 0 27.5 -9.5t19.5 -25.5q14 29 14 64q23 94 29 138t6 75v315q-2 35 -13 94.5t-28 110.5q0 12 -6 21 t-13 18.5t-15.5 19.5t-14.5 25q-35 35 -61.5 44t-67.5 9q-113 0 -172 -137l2 2h2q0 -4 -12 -23.5t-12 -54.5q-6 -31 -12.5 -52.5t-11.5 -52t-8 -79.5t-3 -131z" />
<glyph unicode="R" horiz-adv-x="1030" d="M102 39q0 51 2 88t4.5 70.5t4.5 67.5t2 79v1075l26 13q104 0 178 -1t127.5 -2.5t96.5 -2.5t86 0q57 -4 98 -20.5t68.5 -38t44 -47.5t26.5 -50q29 -43 45.5 -78t16.5 -57v-156q0 -4 -5 -23.5t-10 -29.5q0 -16 -7 -31.5t-25.5 -37t-48 -52.5t-74.5 -76l-6 -14q-1 -7 -1 -14 q0 -29 12 -75q15 -58 37.5 -131t48 -157t44.5 -170q0 -2 5 -15.5t12.5 -28.5t12.5 -28.5t5 -15.5q1 -11 1 -21q-1 -31 -11 -41q-14 -14 -31 -18q-5 -1 -14 -1h-11q-16 1 -36.5 2t-42 3t-40.5 2q-10 -16 -24 15.5t-29.5 89t-32 132t-31 145.5t-26.5 127t-18 79q-4 4 -6.5 14 t-5.5 23.5t-10 26t-19 18.5h-176q-29 -6 -44.5 -28.5t-15.5 -94.5q0 -35 3 -92.5t7 -122t7.5 -131t3.5 -119.5q-4 -2 -5.5 -14.5t-5.5 -27.5t-14 -27.5t-31 -12.5h-62.5t-53 2t-38 9.5t-14.5 21.5zM305 1073q0 -39 1 -63.5t2 -44t2 -37t1 -37.5q6 -23 20.5 -26t20.5 -7h250 q5 -1 10 -1q16 -1 33 9q23 12 31 19q45 35 56 80t11 122q0 8 -8 27t-18 38t-21.5 34.5t-19.5 15.5t-20.5 7.5t-26 15.5t-26.5 14q-10 5 -17 5q-2 0 -4 -1h-209q-4 -12 -15.5 -6t-22.5 0t-20.5 -39t-9.5 -125z" />
<glyph unicode="S" horiz-adv-x="950" d="M61 1008q0 53 6.5 77.5t6.5 51.5q0 29 20.5 52t20.5 48q27 35 55.5 67.5t67.5 61.5q16 0 33.5 20.5t39.5 20.5q10 0 19.5 4t24 9t35 9.5t50.5 4.5q57 0 103.5 -9.5t91.5 -38.5q70 -53 106.5 -82.5t36.5 -78.5q-6 0 -15 -17.5t-26 -17.5q0 -4 -37.5 -12.5t-76.5 -34.5 q-16 0 -21.5 1t-13.5 7q-6 2 -18.5 13.5t-30 23.5t-41 21.5t-52.5 9.5q-12 4 -40.5 -3.5t-40.5 -17.5q-6 0 -20.5 -11t-30 -28.5t-27 -38t-11.5 -39.5v-58.5t6.5 -37.5t19.5 -33.5t42 -44.5q10 0 34.5 -20.5t67.5 -20.5q6 -2 24.5 -7t40 -10t40 -10t24.5 -8q16 0 34 -8 t35.5 -17t34.5 -17.5t32 -10.5q6 0 18 -11t25.5 -25.5t28 -29l22.5 -22.5q6 -6 18.5 -22.5t24.5 -38t21.5 -47t9.5 -47.5q8 -31 11 -78t3 -90v-9q-1 -34 -25 -88q-28 -62 -76.5 -122t-111 -104t-125.5 -44q-19 2 -41 0q-11 -1 -23.5 -1t-25.5 1q-27 2 -55.5 9t-57.5 26 q-2 0 -18.5 8t-44 24.5t-62 43t-71.5 65.5q-51 53 -62.5 93.5t-11.5 56.5t5 32.5t22 20.5q45 16 67.5 25.5t34.5 12.5t19.5 3h19.5q23 -29 36 -50.5t20 -39t14.5 -29.5t17.5 -22q27 -37 56.5 -44.5t72.5 -23.5q37 -2 54.5 0t28.5 6t22.5 11.5t35.5 15.5q6 0 14.5 7t15.5 16 t13 18.5t13 11.5q14 33 23 49t9 39v29.5t-3 41t-9 43t-20 36.5q-25 37 -60 59t-73.5 35.5t-79.5 24t-78 22.5q-14 0 -27.5 7t-28 16.5t-31 16.5t-36.5 7q-2 0 -9.5 5l-16.5 11t-17 11.5t-10 7.5q-10 8 -33 27.5t-45.5 50t-40 73.5t-17.5 99z" />
<glyph unicode="T" horiz-adv-x="968" d="M82 1302.5v24.5q0 14 9 30.5t56 16.5q4 0 27 -1t48.5 -2t47 -2t27.5 -1q31 0 61.5 1t63.5 1q31 0 62.5 -2t64.5 -6q55 2 97 2h73q49 0 75.5 -1t41 -2t20.5 -3t12 -2q6 -10 10.5 -19.5t8.5 -19.5v-17v-49q0 -35 -12.5 -59.5t-59.5 -24.5q-35 0 -75 3.5t-44 3.5 q-78 0 -99.5 -16.5t-21.5 -55.5v-1063q-2 -10 -12 -22.5t-26 -16.5h-123q-8 0 -19.5 7.5t-19.5 23.5q0 162 1 276.5t4 200.5t5 151.5t5 128t4 129t1 154.5q0 43 -10 76t-49 33h-227l-21 20q-2 4 -3 22.5t-2 40t-1 40z" />
<glyph unicode="U" horiz-adv-x="1042" d="M86 1364q-1 4 -1 9q0 9 5 23q8 20 31 27h137q8 0 26.5 -7t22.5 -30q0 -152 -1 -261t-3 -192t-5 -147.5t-5 -125t-3 -125t-1 -148.5q0 -47 15 -68.5t20 -31.5q27 -29 49 -46.5t42.5 -27.5t44 -13t54.5 -3q10 -12 28.5 3t49.5 15q2 0 23.5 10.5t45 32t43 52t19.5 71.5 q0 256 -3 502.5t-3 502.5q8 14 34.5 22.5t57.5 11.5t56.5 3h35.5q4 -4 22.5 -10t18.5 -33q0 -176 -3 -346t-6 -314.5t-5 -252t-2 -158.5q0 -2 -1 -13t-6.5 -26.5t-13.5 -34t-22 -32.5q-31 -47 -61.5 -79t-69.5 -52q-20 -14 -39 -25q-16 -10 -31.5 -16t-24.5 -6 q-35 -2 -71.5 -13.5t-77.5 -11.5q-10 0 -29.5 1t-42 4t-45 9t-37.5 17q-12 12 -27.5 18t-36 17.5t-48 33t-60.5 62.5q-23 27 -36 50.5t-21 46t-12.5 46.5t-8.5 53q0 311 -9 559t-9 447z" />
<glyph unicode="V" horiz-adv-x="921" d="M86 1399q0 27 23 35h131q8 0 26.5 -12.5t22.5 -28.5q6 -27 5 -28t0 -10t7 -42t24.5 -121t52.5 -247t93 -421q4 -23 12 -22q2 0 9 10q59 266 94 428t54 251t24.5 122t6.5 42t1 11t6 29q4 16 22.5 28.5t26.5 12.5h131q23 -8 23 -35q0 -8 -1 -18.5t-3 -20.5 q-4 -12 -15.5 -59.5t-26 -100.5t-25.5 -99t-13 -59q-29 -129 -57.5 -269t-55.5 -275t-50.5 -254t-41.5 -203q-12 -35 -55 -41v-2l-5 2q-16 -4 -32.5 -4h-36.5q-29 0 -54.5 7t-33.5 36q0 6 -14.5 75.5t-33 161t-37 179.5t-26.5 131q-47 217 -90 405.5t-84 366.5 q-2 10 -3 20.5t-1 18.5z" />
<glyph unicode="W" horiz-adv-x="991" d="M90 1346v25.5t12 27.5h148l14 -6q6 -6 10.5 -59.5t6.5 -131.5t2 -169v-177q0 -96 10 -143t57 -70q0 -2 14.5 0t20.5 6q14 0 27.5 38t28 84t26.5 87t25 45q12 -14 22 -49t10 -72q0 -16 17.5 -39.5t17.5 -52.5q4 -6 6 -16t8.5 -20.5t19.5 -17.5t40 -7q0 4 12 13t14 20 q0 8 1.5 29.5t3.5 43t4 39t4 17.5l35 587q4 6 6 11.5t6 9.5q8 0 30.5 1t47 2t47 2t30.5 1h9q16 0 20 -6q6 -8 10 -13v-67l-106 -1165q0 -57 -6 -102.5t-35 -51.5h-154q-3 -2 -5.5 -2t-4.5 2q-4 4 -7 12t-6 16.5t-9 10.5q-4 6 -8.5 25.5t-9.5 42t-10 42t-7 25.5 q0 47 -22.5 73.5t-45.5 26.5t-32 -14t-21 -18q-4 -10 -8 -19q-4 -8 -6 -16t-7 -12q-10 -12 -16 -44t-15.5 -66t-21.5 -58.5t-33 -20.5h-141l-12 6q-6 72 -10 132.5t-6.5 123t-4.5 131t-5 152.5t-6 189.5t-9 242.5q0 20 -5 69.5t-11.5 105.5t-11.5 108.5t-5 79.5z" />
<glyph unicode="X" horiz-adv-x="942" d="M49 1384q0 14 6 19.5t17 9.5h180q16 -2 40.5 -55t65.5 -184q12 -31 21.5 -65t20 -63.5t25.5 -49t40 -19.5q16 0 24.5 19.5t22.5 29.5l127 348q0 6 6 17q2 6 6 10q4 2 6 4t7 4l8 4h174q18 -4 22 -11t4 -20q0 -6 -8 -22.5t-18 -36.5t-19.5 -40.5t-13.5 -35.5q-4 -2 -9 -16 t-11.5 -30.5t-12.5 -31t-8 -16.5q-2 -4 -8 -17.5t-14.5 -29.5t-15.5 -30.5t-9 -22.5q0 -2 -5 -12.5t-11.5 -20.5t-11.5 -20.5t-5 -12.5q-57 -135 -85.5 -196.5t-28.5 -83.5q0 -23 10 -43.5t10 -42.5q6 -12 29.5 -60.5t51.5 -104t51.5 -103.5t29.5 -60q2 -2 7 -15.5t11 -27.5 t12.5 -27.5t8.5 -15.5q6 -8 16 -28.5t20.5 -45t20.5 -45t16 -29.5q0 -23 -3 -36t-14 -19t-33.5 -7t-63.5 -1q-18 0 -42 1t-44.5 8t-33.5 24.5t-13 50.5q-20 70 -41 131t-40.5 107.5t-39 74t-37.5 27.5q-31 0 -37 -15.5t-18 -25.5q-6 -6 -24.5 -56.5t-38 -108.5t-35 -105.5 t-15.5 -49.5q0 -29 -21.5 -39t-46.5 -20h-133q-14 2 -22 8q-8 4 -14.5 13.5t-6.5 23.5q0 12 4 21q43 72 76 144.5t70 149.5v-2l17 38q18 38 40.5 87t43 94.5t26.5 61.5q8 23 13 37t6 23.5t1 18.5v21l2 -2l2 2q0 6 -13 29t-29.5 54.5t-35 66.5t-26.5 63q-41 94 -92 198.5 t-109 215.5q-2 6 -2 18z" />
<glyph unicode="Y" horiz-adv-x="921" d="M82 1384q0 31 38 36t79 5q6 0 21.5 1t30.5 -2t26.5 -16t11.5 -40q12 -37 32.5 -102.5t43 -135t48 -129t50.5 -79.5q27 0 26.5 2t6.5 6q12 20 33.5 71.5t43 113t41 121.5t29.5 97q0 33 25.5 67t64.5 34q12 -4 36 -1t47.5 3t40.5 -7.5t17 -27.5q0 -4 -5 -16.5t-11 -25.5 t-11 -26.5t-5 -15.5q0 -6 -16.5 -51t-42 -113t-55.5 -145.5t-57.5 -149.5t-49 -126t-27.5 -73q0 -10 -4 -25.5t-9.5 -31.5t-9.5 -31.5t-2 -27.5v-502q-4 0 -5 -7t-7 -14.5t-19.5 -13.5t-41.5 -6q-35 0 -73 7t-44 26v577q-2 4 -4 13q-4 12 -4 20q-12 39 -39 101.5t-56.5 132 t-55 135t-38.5 108.5q-35 53 -59.5 129t-40.5 135z" />
<glyph unicode="Z" horiz-adv-x="935" d="M55 45q0 8 1 12t10 19q29 63 43 94t24 50.5t19.5 40t29 62.5t53 115.5t91.5 202.5l186 385l76 213h-498l-20 21q-2 4 -3 22t-2.5 39.5t-1.5 40v24.5q0 14 9.5 31t56.5 17q4 0 26.5 -1t48 -2t47 -2.5t28.5 -1.5q31 0 61.5 1.5t62.5 1.5q31 0 63 -2.5t64 -6.5q55 2 97.5 2 h72.5q49 0 76 -1t41 -2t20.5 -3t12.5 -2q0 -4 11 -11t11 -22q0 -27 -10 -54.5t-23.5 -50t-24.5 -36.5t-13 -14q-12 -31 -21.5 -52.5t-17.5 -40t-17.5 -37t-19.5 -44.5q0 -2 -5 -12.5t-11.5 -20.5t-11.5 -20.5t-5 -12.5q-29 -68 -52.5 -121t-54 -116.5t-71.5 -150.5 t-102 -220q-8 -8 -27.5 -64.5t-42.5 -119.5q16 0 30.5 1t30.5 1q31 0 63 -2t64 -7q55 2 97.5 2h72.5q49 0 76 -1t41 -2t20.5 -3t12.5 -2q6 -10 10 -19t8 -20v-65q0 -35 -12 -59.5t-59 -24.5q-18 0 -44 1t-76 2t-136 2t-224 1l-71 6q-6 -2 -15 -6h-133q-14 2 -22 8 q-8 4 -14.5 13.5t-6.5 23.5z" />
<glyph unicode="\" horiz-adv-x="598" d="M51 1401q0 27 23 35h131q8 0 26.5 -12.5t22.5 -28.5q12 -92 37.5 -214t56.5 -256t63.5 -269.5t59.5 -253t44 -208t17 -133.5q0 -35 -18 -50t-65 -15q-29 0 -50 6l-4 -2v2q-43 6 -55 41q-27 119 -57.5 282.5t-66.5 343t-76 360.5t-85 333q-2 10 -3 20.5t-1 18.5z" />
<glyph unicode="a" horiz-adv-x="903" d="M61 47q6 55 20.5 115.5t29 115t25.5 99.5t11 69q6 33 19.5 101.5t29 154.5t32 181.5t31.5 181.5t28.5 154.5t19.5 101.5q0 -2 1 8t6 25.5t15.5 29t30.5 17.5h207q2 0 9.5 -5t15.5 -12.5t15 -17.5t7 -18q2 -12 7.5 -43t9.5 -65t9 -63.5t7 -41.5q0 -10 13.5 -77t31 -160 t37 -198.5t31.5 -191.5q0 -4 2 -13.5t5 -20.5t5 -21.5t2 -12.5q2 -8 7 -41.5t11.5 -71.5t12.5 -72t8 -42q0 -4 4 -23.5t9 -42t9.5 -42t4.5 -25.5q-2 -8 0 -22q1 -7 1 -13.5t-1 -12.5q-2 -14 -13.5 -23t-40.5 -9h-106q-4 0 -13.5 5t-19.5 25.5t-18 59.5t-8 105q0 18 -14.5 26 t-12.5 12h-287l-6 -6q0 -8 -5 -16t-12.5 -25.5t-12.5 -46t-5 -78.5q0 -23 -6 -33t-15 -15t-19.5 -7t-18.5 -6q-55 0 -85 1t-43 6t-15.5 14.5t-2.5 25.5zM346 487q0 -31 17.5 -49t50.5 -18q36 0 66 -1h9q23 0 41 5q20 6 31.5 21.5t11.5 48.5q0 12 -5 48t-12 83t-18.5 99 t-22.5 96t-23.5 72t-24.5 28h-13t-8 -7q-2 -2 -33.5 -105t-66.5 -308v-13z" />
<glyph unicode="b" horiz-adv-x="960" d="M61 53q0 8 3.5 45t3.5 64q6 121 11 262t7 281.5t4 271.5t5 232.5t7 162t13 62.5h458q8 0 23.5 -2t32 -5.5t31 -7.5t20.5 -4q12 -12 33.5 -15t47 -19.5t53.5 -58.5t54 -130q0 -68 -1 -110t-2 -67.5t-2 -43t-1 -35.5q0 -14 -7 -29.5t-16.5 -31t-16.5 -31t-7 -29.5 q-4 -6 -5 -20.5t-1 -20.5q0 -2 8 -19.5t18.5 -37t18.5 -34.5l8 -15q16 -37 21.5 -60.5t5.5 -48.5q0 -59 -1 -98t-2 -66.5t-2 -48t-1 -43.5q-4 -4 -6.5 -18.5t-7.5 -33t-13 -37.5t-20 -32q-6 -4 -16.5 -20.5t-10.5 -20.5q-6 -4 -16.5 -14t-20.5 -21.5t-19.5 -20.5t-11.5 -11 q-27 -20 -59.5 -34.5t-54.5 -25.5q-29 -4 -46.5 -7t-33 -4t-32.5 -2t-44 -1q-23 0 -77 2t-114.5 5t-114.5 5t-77 2q-10 0 -20 12q-8 9 -8 19q0 4 1 8zM270 283q4 -8 6.5 -19.5t11.5 -23t31.5 -18.5t65.5 -7q18 3 36 3q15 0 29 -2q26 -4 54 -4h11q34 1 67.5 16.5t70.5 62.5 q-2 10 5.5 16t16.5 19.5t17 39t8 78.5q0 39 -1 66t-9 48.5t-23.5 43t-45.5 51.5q-35 12 -52.5 19.5t-33 10.5t-38 3h-65.5q-12 0 -35.5 1t-47 0t-41 -8t-17.5 -26q-8 -51 -12.5 -96t-6.5 -88t-2 -89v-97zM283 936q12 -29 31.5 -35t29.5 -12h229q18 0 28.5 4t18 10t14.5 16.5 t19 22.5q0 10 3 15.5t7.5 15.5t7.5 31.5t3 66.5q0 41 -5 67.5t-17.5 43t-32 26t-46.5 17.5h-235q-3 1 -6 1q-16 0 -28 -16q-16 -20 -21 -39v-235z" />
<glyph unicode="c" horiz-adv-x="989" d="M88 633q0 20 2 55t5 75t5 77t2 61q-4 16 8.5 51t12.5 60q4 18 13 57t26.5 84t44 89t67.5 73q2 2 23.5 20.5t53.5 40t67 39t63 17.5q57 0 85 1h10q22 1 40 -3q22 -4 51 -17.5t89 -42.5q2 0 14 -7t26.5 -19.5t29 -26.5t20.5 -29q-2 -4 9 -15t26.5 -30.5t28 -50.5t12.5 -76 q3 -9 3 -17q1 -9 -3 -19q-6 -18 -15.5 -30t-18.5 -18t-14 0l-14 1t-35.5 3t-44 3t-37.5 1l-8 7q-12 49 -30.5 80.5t-36.5 64.5l-15 6q-12 12 -33.5 23.5t-56.5 11.5q-20 2 -32.5 -1t-22.5 -7t-19.5 -8.5t-21.5 -4.5q-8 2 -21.5 -16t-27.5 -18l-6 -7q-4 -6 -15.5 -22 t-24 -35.5t-21.5 -40t-9 -33.5l-4 -11q-4 -11 -9 -26.5t-9.5 -30t-4.5 -22.5q0 -35 -14 -72.5t-14 -64.5q-1 -39 -1 -70v-28q1 -39 3 -68t4 -53.5t2 -50.5q0 -16 7 -53t18.5 -78t25.5 -79t31 -59q12 -10 26.5 -25.5t31 -29.5t37 -24.5t44.5 -10.5q35 0 55.5 1t32.5 8 q10 0 26.5 12t33 29.5t27.5 34t11 26.5q0 29 7.5 45t17.5 25.5t21.5 13.5t21.5 6q23 0 45.5 1t43 -1t35.5 -7t21 -20q2 -4 -3 -33.5t-17 -68.5t-33.5 -79t-50.5 -60q-16 -20 -32.5 -31.5t-35.5 -30.5q-12 0 -22 -8t-23.5 -19.5t-32 -19.5t-47.5 -8q-51 0 -79.5 1t-46 2 t-27.5 2t-25 1l-84 35q-23 0 -43 22.5t-32 32.5l-15 6q-14 4 -39.5 58.5t-76.5 154.5q0 2 -5.5 21.5t-12.5 41t-12 42t-5 26.5q0 43 -13.5 98.5t-13.5 88.5z" />
<glyph unicode="d" horiz-adv-x="989" d="M63 55q0 18 3 41q2 16 3 37t1 37q0 39 1 162t2 293t2 368.5t1 386.5q0 33 20 47q20 0 70.5 1.5t107 2.5t106.5 2t71 1h20q4 0 16.5 -1t25.5 -2t24.5 -2.5t15.5 -1.5q16 0 57 -9t64 -32q39 -27 59.5 -47t33.5 -37.5t24.5 -35t31.5 -35.5q2 2 7.5 -12.5t11.5 -34t12 -40 t10 -30.5q0 -33 13.5 -58.5t13.5 -70.5q10 -43 14 -93t4 -102.5t-2 -106.5t-2 -105q0 -31 -10 -74t-10 -82q0 -12 -5.5 -30.5t-10.5 -37t-9 -33t-2 -16.5q0 -23 -15.5 -48.5t-11.5 -25.5q0 -8 -7 -18t-16 -20.5t-17.5 -20.5t-8.5 -16q-33 -33 -56.5 -55.5t-63.5 -45.5 q-4 0 -20.5 -8t-39 -17.5t-47.5 -16.5t-43 -7q-29 0 -56.5 -1t-58 -2t-68.5 -2t-89 -1q-27 0 -61 -2q-14 -1 -26 -1q-19 0 -35 2q-28 3 -44 15q-12 9 -13 27q0 6 2 14zM272 266q12 -55 70 -55q3 -3 15 -3q5 0 15 1q26 2 58.5 5t61 7t40.5 4l16 7q15 6 32.5 15t32 21.5 t14.5 24.5q0 6 5 11t11 13.5t12.5 22.5t6.5 41q6 35 13 62.5t13 65.5t10 94t4 151q0 53 -7 109.5t-7 148.5q0 25 -6 41t-15.5 31.5t-20.5 32t-19 38.5q0 4 -9.5 14.5t-21.5 20.5t-24.5 18.5t-18.5 8.5q4 0 -9.5 2t-31.5 5t-34 6q-9 2 -13 2q-2 0 -2 -1h-70t-61.5 -7 t-43 -26.5t-16.5 -56.5v-875z" />
<glyph unicode="e" horiz-adv-x="1007" d="M82 33q0 186 1 358t2 338t2 330t1 334q2 10 7 15t14 11q166 8 335.5 11.5t370.5 3.5q29 0 46.5 -6.5t45.5 -34.5q0 6 3 -7.5t7.5 -35t7.5 -46t3 -44.5q0 -2 -2 -15.5t-8.5 -28t-17.5 -25.5t-32 -11q-12 -2 -56 3t-92 10t-87 9t-39 -2q-4 0 -19.5 1t-33 2t-32.5 2t-22 1 q-8 -6 -37.5 -2t-61.5 4t-58.5 -9t-28.5 -40v-180q2 2 3 -9.5t5 -27.5t13.5 -29.5t31.5 -13.5q23 0 74 7t113 7q4 -2 15 0t24.5 2t30 -4t30.5 -18l6 -4t13.5 -21.5t14.5 -52.5t7 -96q0 -6 -6 -16.5t-15.5 -19.5t-20.5 -16.5t-19 -7.5q-14 -2 -39 -1t-53.5 4.5t-59.5 7.5 t-55 10q-2 0 -11.5 -1t-19.5 -2t-19 -2l-10 -1q-2 0 -10 -1t-17.5 -9.5t-17.5 -27t-8 -50.5v-320q0 -10 6 -21.5t21 -11.5q78 0 166 3.5t174 3.5q12 0 35.5 3t49 7t47 7t27.5 3q16 -6 33 -1t31 3t22.5 -19.5t8.5 -68.5q0 -4 -4.5 -20.5t-9.5 -37t-9 -38t-4 -19.5 q-6 -2 -8 -9t-9.5 -15t-23.5 -14.5t-53 -6.5q-104 0 -211 -2t-197 -5t-155.5 -5t-90.5 -2q-5 -1 -10 -1q-13 1 -31 9q-24 12 -24 25z" />
<glyph unicode="f" horiz-adv-x="946" d="M63 1335v19.5t1.5 27t7.5 23.5t18 10h78t119.5 1t141.5 2t141.5 2t119.5 1h80h47q6 -8 17 -2q9 5 17 5q3 0 6 -1q11 -2 19.5 -25.5t8.5 -90.5q-4 -4 -2 -14.5t2 -21.5t-8.5 -23.5t-32.5 -20.5q-104 0 -175 1t-123 2t-98.5 2t-101.5 1q-35 0 -51 -3t-23.5 -11.5 t-11.5 -20.5t-16 -31v-221q2 -16 13 -42.5t34 -31.5h256q14 -4 18 -10t8 -16v-121q-4 -14 -10 -18.5t-16 -8.5h-242q-2 -4 -11 -4t-19.5 -3t-19.5 -14t-11 -38v-256q8 -14 8 -25.5v-33.5q0 -18 -1 -60.5t-3 -90.5t-3 -90t-1 -60q-6 -8 -11.5 -13.5t-15.5 -7.5h-115 q-4 4 -13 4t-19 29q0 12 1 29.5t2 60.5t2 123t1 217q0 92 -6.5 319.5t-6.5 550.5z" />
<glyph unicode="g" horiz-adv-x="978" d="M82 766v81t8 80t26.5 105.5t55.5 161.5q0 6 10.5 26.5t25.5 45t35.5 46t43.5 31.5q4 6 19.5 18.5t38 25t48 22.5t49.5 10q16 0 43 6.5t45 6.5q2 2 7 2q8 0 22 -4q25 -5 59 -5l23 -9t50.5 -20.5t50 -22.5t20.5 -15q27 -29 53.5 -55.5t46 -60.5t31.5 -80t12 -109l-8 -9 h-176q-10 6 -13 18.5t-8 31.5q-4 2 -7 13t-9 26.5t-19.5 34t-37.5 34.5q-6 6 -26.5 11.5t-29.5 9.5h-21q-36 0 -60 -5q-29 -8 -49.5 -21t-34 -32.5t-31.5 -44.5q-20 -29 -31.5 -51t-20 -47t-14.5 -56.5t-16 -76.5q0 -33 -2 -55.5t-4 -42t-4 -36t-2 -36.5q0 -10 1 -47 t7 -88.5t18 -108.5t33 -108q0 -4 14.5 -30t40 -55.5t62.5 -54t82 -24.5q16 2 45.5 3t48.5 23q8 10 22.5 17.5t27.5 22t22.5 39t9.5 71.5v19.5t-3 26.5t-13.5 24.5t-30.5 11.5q-31 0 -45.5 8t-24.5 27v161q2 2 4 7q4 8 10 8q12 0 56.5 -1t93.5 -2t89 -2l40 -1l20 -21 q1 -24 1 -49q0 -51 -3 -108q-4 -85 -4 -162q2 -16 -9 -35t-11 -47q-8 -23 -19 -45q-10 -20 -24.5 -43t-32.5 -41q-2 0 -9 -8.5t-15.5 -18.5t-18.5 -19.5t-18 -9.5q-10 2 -21.5 -7t-32 -20.5t-50.5 -21.5t-73 -10q-10 -1 -21 -1q-20 0 -42 5q-31 8 -66 8q-4 -4 -21.5 8.5 t-31.5 12.5q-45 18 -57.5 25.5t-24.5 15.5q-6 2 -16 12t-21.5 22.5t-21.5 23.5t-17 18q0 14 -19 36.5t-34 57.5q-8 29 -16 53q-8 23 -16.5 45.5t-14.5 36.5q0 14 -6 39.5t-14.5 54.5t-14.5 57.5t-6 53.5q0 41 -4 91t-4 91z" />
<glyph unicode="h" horiz-adv-x="960" d="M61 47v103q0 37 2.5 105.5t4.5 139t4 128t2 71.5q0 18 1 84.5t3 143.5t3 142.5t1 84.5q0 12 -1 58t-3 99.5t-3 100.5t-1 59q0 29 5 48.5t30 25.5h131h2q8 0 22 -12q16 -14 15 -29v-27t-1.5 -9t-3.5 -23.5t-3 -69.5t-3 -147.5t-2 -258.5q6 -2 10.5 -1t8.5 1q31 0 61.5 1 t63.5 1q31 0 62.5 -2t64.5 -6q47 2 80.5 2h62.5q2 66 3 119t1 70q0 12 -1 58t-3 99.5t-3 100.5t-1 59q0 29 5 48.5t30 25.5h131h2q8 0 22 -12q16 -14 15 -29v-26t-1 -8t-2 -19.5t-2.5 -59.5t-2.5 -129t-2 -226.5t-2 -353t-1 -509.5q0 -25 -6 -34t-14 -12.5t-17.5 -5.5 t-15.5 -10q-2 4 -25.5 1t-51 -3t-50 8t-24.5 35v103q0 37 2 105.5t4 139t4 128t2 71.5v76l-352 6h-58v-608q0 -25 -6 -34t-14 -12.5t-17.5 -5.5t-15.5 -10q-2 4 -25.5 1t-51 -3t-50.5 8t-25 35z" />
<glyph unicode="i" d="M113 41v102q0 37 2 105.5t4 139.5t4 128t2 72q0 18 1 84.5t3 143.5t3 142.5t1 83.5q0 12 -1 58.5t-3 99.5t-3 100.5t-1 59.5q0 29 5 48t30 26h131h2q7 0 21 -12q16 -14 16 -29v-26t-1 -8t-2 -19.5t-2 -59.5t-2 -129t-2.5 -226.5t-2.5 -353.5t-1 -510q0 -25 -6 -34 t-14 -12t-17.5 -5t-15.5 -10q-2 4 -25.5 1t-51 -3t-50 8t-24.5 35z" />
<glyph unicode="j" horiz-adv-x="976" d="M61 258v6q-1 1 -1 3q0 3 4 7q8 5 12 11q2 0 14 5t27.5 12t32 12t28.5 5q14 -2 25.5 1.5t24 2.5t27.5 -10.5t38 -33.5q-6 8 1 -1.5t23.5 -22.5t39 -25.5t44.5 -12.5q16 0 46 -3t57 -3q18 0 41.5 16.5t40.5 16.5q10 12 26.5 26.5t33 35t28.5 50t12 72.5v971q4 4 19.5 18.5 t29.5 16.5q45 0 71 2q10 1 18 1q14 0 24 -2q16 -3 26.5 -12.5t22.5 -29.5q0 -137 -1 -262t-2 -246t-2 -240t-1 -244q0 -27 -6 -60.5t-21 -61.5q2 -8 -3 -18.5t-14 -22t-16.5 -22.5t-7.5 -19q0 -10 -15 -26.5t-34.5 -35t-37 -34t-21.5 -19.5q-8 2 -20.5 -7t-27 -19.5 t-30.5 -19.5t-31 -9q-37 -16 -61.5 -21.5t-48.5 -5.5q-29 0 -47.5 1t-32 2t-24.5 2t-25 1q-37 0 -89.5 26.5t-100.5 65.5t-82 83t-34 77z" />
<glyph unicode="k" horiz-adv-x="966" d="M61 53q0 147 4.5 248.5t9.5 191t9 185.5t4 233q0 10 -1 32t-3 69t-3 123.5t-1 197.5q2 41 21.5 71t91.5 30q29 0 69 -7q12 0 15.5 -26.5t3.5 -61.5q0 -6 -2.5 -36.5t-4.5 -65.5t-4 -65.5t-2 -38.5q0 -82 2 -121t6.5 -54.5t12.5 -17.5t20 -8q18 0 27.5 9t25.5 24 q33 49 64 96q25 41 50.5 84t39.5 76q2 2 15.5 21.5t30 46t33.5 53t28 44.5q0 20 30.5 30.5t116.5 10.5q59 0 73.5 -3t14.5 -19v-19q0 -2 -23.5 -44t-70.5 -89q-23 -31 -49.5 -65.5t-50 -66t-40 -61.5t-16.5 -50q0 -10 1 -19.5t1 -17.5q23 -90 41.5 -154.5t34.5 -119 t31.5 -105.5t35 -111.5t43 -137.5t54.5 -183q25 -49 33 -65.5t8 -30.5q0 -27 -8.5 -41.5t-32.5 -24.5q-66 0 -98.5 3t-47 10t-18.5 18.5t-16 29.5q-10 53 -26.5 123t-33 131.5t-29 102.5t-12.5 39q0 18 -7 38.5t-16 43t-16.5 47t-7.5 51.5q0 20 -10 41.5t-10 26.5 q-20 29 -25.5 33.5t-21.5 4.5q-2 0 -4 1t-5 1q-23 0 -54.5 -36.5t-59 -81.5t-47 -83t-17.5 -40v-436q-4 0 -4 -9.5t-3 -20.5t-11 -20.5t-29 -9.5q-8 0 -23.5 -1t-35.5 -1q-35 0 -68 8.5t-33 38.5z" />
<glyph unicode="l" horiz-adv-x="995" d="M82 52.5v35.5q0 18 1 78.5t2 141.5t3 173t3 173t2 141.5t1 78.5q0 201 -3 327t-3 200q0 6 2 12t14.5 11.5t40 8.5t78.5 3q8 1 15 1q10 0 18 -2q12 -3 19.5 -7.5t13.5 -11.5t16 -15q0 -143 -3 -294t-7 -293t-7 -270t-3 -225q-2 -35 4 -56t15 -32.5t19.5 -15.5t14.5 -4 q27 0 107.5 6t216.5 6q10 0 50 2t85 2t81.5 -6t41.5 -24q2 -2 2 -10q0 -11 -4 -34q-6 -40 -5 -118q2 -4 -1 -9.5t-16 -11.5t-40 -10t-72 -4q-39 0 -79.5 1t-112.5 3t-188 3t-302 1q-10 6 -14 11.5t-5 12.5t-1 20.5z" />
<glyph unicode="m" horiz-adv-x="991" d="M61 35q0 27 3.5 75t3.5 140q8 223 12 383t6 288t2 239.5v240.5q2 16 9 22.5t18 10.5h149q10 -4 16.5 -5.5t22.5 -21.5q-2 12 5 -5.5t18.5 -53t27 -82.5t30.5 -93.5t27.5 -85t20.5 -57.5q14 -39 27.5 -60.5t32.5 -25.5q12 -4 18 2t11 18.5t13.5 32t24.5 41.5 q-6 8 10.5 28.5t16.5 37.5q20 43 39.5 96t38 100.5t37 81t40.5 39.5q6 -2 35 0t59.5 0t55 -12t24.5 -35q0 -23 -2 -50.5t-4 -54t-4 -51t-2 -38.5l-20 -1151q-4 -12 -10.5 -17.5t-16.5 -11.5h-141q-8 4 -16.5 8.5t-18.5 20.5q0 180 13.5 351t13.5 347q0 14 -3.5 37.5 t-10.5 39t-18 14.5t-28 -36q-25 -51 -65.5 -149t-75.5 -209q-2 -8 -8 -14.5t-13 -12.5q0 -2 -13 1t-13 34q-16 51 -38 114.5t-43.5 122t-36.5 99.5t-17 47q-16 6 -22.5 -7t-10.5 -20q0 -8 -13.5 -39.5t-13.5 -80.5q0 -131 3 -259t3 -259q0 -47 -3 -62.5t-3 -32.5 q2 -8 -4 -15t-14 -13.5t-16 -9.5l-7 -3h-121q-6 2 -18 6.5t-23 14.5z" />
<glyph unicode="n" horiz-adv-x="1007" d="M86 88q-1 14 -1 28q0 16 1 30q2 28 2 44q2 45 4 141.5t4 217.5t4 254t5.5 254t5.5 217t4 141q0 10 11 20.5t15 14.5h158q0 -2 9 -6t18.5 -10.5t17.5 -15.5t8 -23q0 -6 6.5 -18.5t13.5 -28t13 -32t6 -30.5q8 -23 26.5 -69t41 -103t48 -121.5t48.5 -122t41 -103.5l27 -69 q31 -33 40 -53t31 -20q6 -4 19.5 5t13.5 54q0 20 1 62t1 95.5t2 111t2 110.5t1 94t1 62q0 27 -1 63v36v34q1 34 5 59t15 25h151q23 0 32 -21.5t9 -46.5q0 -6 -2 -28.5t-5 -49t-5 -49t-2 -29.5q0 -162 -4 -311t-9.5 -293.5t-9.5 -287t-4 -291.5q0 -8 -7 -15.5t-17 -11.5h-146 l-7 2q-7 2 -16.5 7t-16.5 13.5t-7 24.5l-276 690q-4 12 -9.5 27.5t-11.5 28t-15.5 18.5t-23.5 0q-4 2 -25.5 -17.5t-21.5 -62.5v-690q-10 -29 -33 -35h-139q-25 6 -35 28.5t-12 51.5z" />
<glyph unicode="o" horiz-adv-x="985" d="M102 581.5v63.5q0 8 1 37t2 62.5t2.5 62.5t1.5 37q-1 14 -1 29q0 30 5 64q8 50 19 97t21.5 84t10.5 56q8 25 16 43t21.5 37.5t35 44t58.5 61.5q8 8 23.5 15t32 14.5t30.5 14.5t22 17q4 4 56.5 8.5t122.5 4.5q33 0 63.5 -20.5t52.5 -20.5q31 -29 51.5 -43.5t35 -26.5 t26.5 -27.5t25 -46.5q0 -10 17 -34.5t17 -47.5t17.5 -75t17.5 -138v-20q0 -8 1 -47t2 -91.5t2 -107.5t1 -98q0 -2 -1 -18.5t-3 -36t-5 -39t-5 -29.5q-18 -63 -27.5 -110.5t-14.5 -80t-10 -53t-16 -30.5q-33 -53 -60.5 -83t-54 -46.5t-54 -25.5t-58.5 -24q-23 -10 -59.5 -12 t-118.5 -2q-18 0 -53 20.5t-70 34.5q-12 0 -27.5 14.5t-31 35t-29.5 39t-23 28.5q-18 35 -35.5 77t-25.5 107q-10 55 -15 94t-8.5 71t-3.5 60.5zM287 707q0 -117 7 -173.5t7 -87.5q0 -18 6 -52t17.5 -67.5t27 -62t31.5 -37.5q6 -8 26.5 -19t28.5 -15h123q16 4 39 18t37 29 q4 6 14.5 15t20.5 24.5t18 36t8 49.5q23 94 29 138t6 75v315q-2 35 -13 94.5t-28 110.5q0 12 -6 21t-13 18.5t-15.5 19.5t-14.5 25q-35 35 -61.5 44t-67.5 9q-25 0 -52.5 -9t-43.5 -24q-10 -14 -19.5 -22.5t-17.5 -17.5t-17.5 -23.5t-21.5 -40.5q4 -2 -8 -26.5t-12 -49.5 q-4 -25 -10.5 -53.5t-10.5 -55.5q0 -27 -9 -77q-6 -34 -6 -83q0 -21 1 -46z" />
<glyph unicode="p" horiz-adv-x="985" d="M61 53v41q0 10 1 43t2.5 78t3.5 94t3 94.5t2 78t1 42.5q0 248 4 462t4 425q6 14 17.5 15t15.5 6h452q7 1 13 1q17 0 30 -5q17 -5 34.5 -14t36.5 -21.5t50 -22.5q16 -16 33.5 -28.5t34.5 -32.5q4 -8 7 -11.5t9 -12.5t17.5 -29.5t33.5 -61.5q4 -4 12.5 -53t8.5 -140 q0 -37 -13.5 -69.5t-13.5 -59.5q0 -8 -7 -21t-15.5 -25.5t-16.5 -23.5t-8 -18q-47 -47 -83 -82.5t-75 -39.5q4 -6 -8 -8.5t-31.5 -3.5t-41 -4t-35.5 -11q-29 -2 -43.5 2t-32.5 4q-2 -4 -31 -1t-62.5 3t-62 -5t-28.5 -24q-4 -84 -5.5 -188t-4.5 -196.5t-10 -158t-21 -71.5 h-144q-10 4 -21.5 8t-11.5 45zM272 893q0 -16 16.5 -28.5t39.5 -18.5q49 0 94 -3q27 -2 52 -2q17 0 33 1q40 2 73.5 13t60.5 38q27 18 40 45t19 54q4 20 4 40v10q-2 25 -2 41q0 8 -10 31t-31.5 46.5t-53.5 42t-75 18.5h-192q-23 0 -33 -7.5t-15 -18.5t-9 -24.5t-11 -25.5 v-252z" />
<glyph unicode="q" horiz-adv-x="985" d="M102 645q0 8 1 37t2 62.5t2.5 62.5t1.5 37q0 6 -1.5 12t-1.5 12q0 43 9.5 89.5t19.5 89.5t19.5 76.5t9.5 50.5q8 25 16 43t21.5 37.5t35 44t58.5 61.5q8 8 23.5 15t32 14.5t30.5 14.5t22 17q4 4 56.5 8.5t122.5 4.5q33 0 63.5 -20.5t52.5 -20.5q31 -29 51.5 -43.5 t35 -26.5t26.5 -27.5t25 -46.5q0 -10 17 -34.5t17 -47.5t17.5 -76t17.5 -139v-18q0 -8 1 -47t2 -91.5t2 -107.5t1 -98q0 -2 -1 -18.5t-3 -36t-5 -39t-5 -29.5q-18 -63 -27.5 -110.5t-14.5 -80t-10 -53t-16 -30.5q-23 -37 -45 -66q10 -18 26.5 -56t47.5 -108q10 -25 10 -31 q0 -18 -8 -28.5t-22 -20.5q-29 -20 -52.5 -28.5t-44.5 -8.5q-25 0 -42 10.5t-27 22.5q-12 14 -19 35q-4 10 -18 38t-33 62q-23 -10 -59.5 -12t-118.5 -2q-18 0 -53 20.5t-70 34.5q-12 0 -27.5 14.5t-31 35t-29.5 39t-23 28.5q-31 55 -48 124t-26.5 135.5t-11.5 123.5t-2 90z M287 707q0 -117 7 -173.5t7 -87.5q0 -18 6 -52t17.5 -67.5t27 -62t31.5 -37.5q6 -8 26.5 -19t28.5 -15h72q-4 0 -7 7t-5 16t-4 18.5t-2 11.5q0 18 16 33l119 55q2 2 10 2q18 0 27.5 -9.5t19.5 -25.5q14 29 14 64q23 94 29 138t6 75v315q-2 35 -13 94.5t-28 110.5q0 12 -6 21 t-13 18.5t-15.5 19.5t-14.5 25q-35 35 -61.5 44t-67.5 9q-113 0 -172 -137l2 2h2q0 -4 -12 -23.5t-12 -54.5q-6 -31 -12.5 -52.5t-11.5 -52t-8 -79.5t-3 -131z" />
<glyph unicode="r" horiz-adv-x="1030" d="M102 39q0 51 2 88t4.5 70.5t4.5 67.5t2 79v1075l26 13q104 0 178 -1t127.5 -2.5t96.5 -2.5t86 0q57 -4 98 -20.5t68.5 -38t44 -47.5t26.5 -50q29 -43 45.5 -78t16.5 -57v-156q0 -4 -5 -23.5t-10 -29.5q0 -16 -7 -31.5t-25.5 -37t-48 -52.5t-74.5 -76l-6 -14q-1 -7 -1 -14 q0 -29 12 -75q15 -58 37.5 -131t48 -157t44.5 -170q0 -2 5 -15.5t12.5 -28.5t12.5 -28.5t5 -15.5q1 -11 1 -21q-1 -31 -11 -41q-14 -14 -31 -18q-5 -1 -14 -1h-11q-16 1 -36.5 2t-42 3t-40.5 2q-10 -16 -24 15.5t-29.5 89t-32 132t-31 145.5t-26.5 127t-18 79q-4 4 -6.5 14 t-5.5 23.5t-10 26t-19 18.5h-176q-29 -6 -44.5 -28.5t-15.5 -94.5q0 -35 3 -92.5t7 -122t7.5 -131t3.5 -119.5q-4 -2 -5.5 -14.5t-5.5 -27.5t-14 -27.5t-31 -12.5h-62.5t-53 2t-38 9.5t-14.5 21.5zM305 1073q0 -39 1 -63.5t2 -44t2 -37t1 -37.5q6 -23 20.5 -26t20.5 -7h250 q5 -1 10 -1q16 -1 33 9q23 12 31 19q45 35 56 80t11 122q0 8 -8 27t-18 38t-21.5 34.5t-19.5 15.5t-20.5 7.5t-26 15.5t-26.5 14q-10 5 -17 5q-2 0 -4 -1h-209q-4 -12 -15.5 -6t-22.5 0t-20.5 -39t-9.5 -125z" />
<glyph unicode="s" horiz-adv-x="950" d="M61 1008q0 53 6.5 77.5t6.5 51.5q0 29 20.5 52t20.5 48q27 35 55.5 67.5t67.5 61.5q16 0 33.5 20.5t39.5 20.5q10 0 19.5 4t24 9t35 9.5t50.5 4.5q57 0 103.5 -9.5t91.5 -38.5q70 -53 106.5 -82.5t36.5 -78.5q-6 0 -15 -17.5t-26 -17.5q0 -4 -37.5 -12.5t-76.5 -34.5 q-16 0 -21.5 1t-13.5 7q-6 2 -18.5 13.5t-30 23.5t-41 21.5t-52.5 9.5q-12 4 -40.5 -3.5t-40.5 -17.5q-6 0 -20.5 -11t-30 -28.5t-27 -38t-11.5 -39.5v-58.5t6.5 -37.5t19.5 -33.5t42 -44.5q10 0 34.5 -20.5t67.5 -20.5q6 -2 24.5 -7t40 -10t40 -10t24.5 -8q16 0 34 -8 t35.5 -17t34.5 -17.5t32 -10.5q6 0 18 -11t25.5 -25.5t28 -29l22.5 -22.5q6 -6 18.5 -22.5t24.5 -38t21.5 -47t9.5 -47.5q8 -31 11 -78t3 -90v-9q-1 -34 -25 -88q-28 -62 -76.5 -122t-111 -104t-125.5 -44q-19 2 -41 0q-11 -1 -23.5 -1t-25.5 1q-27 2 -55.5 9t-57.5 26 q-2 0 -18.5 8t-44 24.5t-62 43t-71.5 65.5q-51 53 -62.5 93.5t-11.5 56.5t5 32.5t22 20.5q45 16 67.5 25.5t34.5 12.5t19.5 3h19.5q23 -29 36 -50.5t20 -39t14.5 -29.5t17.5 -22q27 -37 56.5 -44.5t72.5 -23.5q37 -2 54.5 0t28.5 6t22.5 11.5t35.5 15.5q6 0 14.5 7t15.5 16 t13 18.5t13 11.5q14 33 23 49t9 39v29.5t-3 41t-9 43t-20 36.5q-25 37 -60 59t-73.5 35.5t-79.5 24t-78 22.5q-14 0 -27.5 7t-28 16.5t-31 16.5t-36.5 7q-2 0 -9.5 5l-16.5 11t-17 11.5t-10 7.5q-10 8 -33 27.5t-45.5 50t-40 73.5t-17.5 99z" />
<glyph unicode="t" horiz-adv-x="968" d="M82 1302.5v24.5q0 14 9 30.5t56 16.5q4 0 27 -1t48.5 -2t47 -2t27.5 -1q31 0 61.5 1t63.5 1q31 0 62.5 -2t64.5 -6q55 2 97 2h73q49 0 75.5 -1t41 -2t20.5 -3t12 -2q6 -10 10.5 -19.5t8.5 -19.5v-17v-49q0 -35 -12.5 -59.5t-59.5 -24.5q-35 0 -75 3.5t-44 3.5 q-78 0 -99.5 -16.5t-21.5 -55.5v-1063q-2 -10 -12 -22.5t-26 -16.5h-123q-8 0 -19.5 7.5t-19.5 23.5q0 162 1 276.5t4 200.5t5 151.5t5 128t4 129t1 154.5q0 43 -10 76t-49 33h-227l-21 20q-2 4 -3 22.5t-2 40t-1 40z" />
<glyph unicode="u" horiz-adv-x="1042" d="M86 1364q-1 4 -1 9q0 9 5 23q8 20 31 27h137q8 0 26.5 -7t22.5 -30q0 -152 -1 -261t-3 -192t-5 -147.5t-5 -125t-3 -125t-1 -148.5q0 -47 15 -68.5t20 -31.5q27 -29 49 -46.5t42.5 -27.5t44 -13t54.5 -3q10 -12 28.5 3t49.5 15q2 0 23.5 10.5t45 32t43 52t19.5 71.5 q0 256 -3 502.5t-3 502.5q8 14 34.5 22.5t57.5 11.5t56.5 3h35.5q4 -4 22.5 -10t18.5 -33q0 -176 -3 -346t-6 -314.5t-5 -252t-2 -158.5q0 -2 -1 -13t-6.5 -26.5t-13.5 -34t-22 -32.5q-31 -47 -61.5 -79t-69.5 -52q-20 -14 -39 -25q-16 -10 -31.5 -16t-24.5 -6 q-35 -2 -71.5 -13.5t-77.5 -11.5q-10 0 -29.5 1t-42 4t-45 9t-37.5 17q-12 12 -27.5 18t-36 17.5t-48 33t-60.5 62.5q-23 27 -36 50.5t-21 46t-12.5 46.5t-8.5 53q0 311 -9 559t-9 447z" />
<glyph unicode="v" horiz-adv-x="921" d="M86 1399q0 27 23 35h131q8 0 26.5 -12.5t22.5 -28.5q6 -27 5 -28t0 -10t7 -42t24.5 -121t52.5 -247t93 -421q4 -23 12 -22q2 0 9 10q59 266 94 428t54 251t24.5 122t6.5 42t1 11t6 29q4 16 22.5 28.5t26.5 12.5h131q23 -8 23 -35q0 -8 -1 -18.5t-3 -20.5 q-4 -12 -15.5 -59.5t-26 -100.5t-25.5 -99t-13 -59q-29 -129 -57.5 -269t-55.5 -275t-50.5 -254t-41.5 -203q-12 -35 -55 -41v-2l-5 2q-16 -4 -32.5 -4h-36.5q-29 0 -54.5 7t-33.5 36q0 6 -14.5 75.5t-33 161t-37 179.5t-26.5 131q-47 217 -90 405.5t-84 366.5 q-2 10 -3 20.5t-1 18.5z" />
<glyph unicode="w" horiz-adv-x="991" d="M90 1346v25.5t12 27.5h148l14 -6q6 -6 10.5 -59.5t6.5 -131.5t2 -169v-177q0 -96 10 -143t57 -70q0 -2 14.5 0t20.5 6q14 0 27.5 38t28 84t26.5 87t25 45q12 -14 22 -49t10 -72q0 -16 17.5 -39.5t17.5 -52.5q4 -6 6 -16t8.5 -20.5t19.5 -17.5t40 -7q0 4 12 13t14 20 q0 8 1.5 29.5t3.5 43t4 39t4 17.5l35 587q4 6 6 11.5t6 9.5q8 0 30.5 1t47 2t47 2t30.5 1h9q16 0 20 -6q6 -8 10 -13v-67l-106 -1165q0 -57 -6 -102.5t-35 -51.5h-154q-3 -2 -5.5 -2t-4.5 2q-4 4 -7 12t-6 16.5t-9 10.5q-4 6 -8.5 25.5t-9.5 42t-10 42t-7 25.5 q0 47 -22.5 73.5t-45.5 26.5t-32 -14t-21 -18q-4 -10 -8 -19q-4 -8 -6 -16t-7 -12q-10 -12 -16 -44t-15.5 -66t-21.5 -58.5t-33 -20.5h-141l-12 6q-6 72 -10 132.5t-6.5 123t-4.5 131t-5 152.5t-6 189.5t-9 242.5q0 20 -5 69.5t-11.5 105.5t-11.5 108.5t-5 79.5z" />
<glyph unicode="x" horiz-adv-x="942" d="M49 1384q0 14 6 19.5t17 9.5h180q16 -2 40.5 -55t65.5 -184q12 -31 21.5 -65t20 -63.5t25.5 -49t40 -19.5q16 0 24.5 19.5t22.5 29.5l127 348q0 6 6 17q2 6 6 10q4 2 6 4t7 4l8 4h174q18 -4 22 -11t4 -20q0 -6 -8 -22.5t-18 -36.5t-19.5 -40.5t-13.5 -35.5q-4 -2 -9 -16 t-11.5 -30.5t-12.5 -31t-8 -16.5q-2 -4 -8 -17.5t-14.5 -29.5t-15.5 -30.5t-9 -22.5q0 -2 -5 -12.5t-11.5 -20.5t-11.5 -20.5t-5 -12.5q-57 -135 -85.5 -196.5t-28.5 -83.5q0 -23 10 -43.5t10 -42.5q6 -12 29.5 -60.5t51.5 -104t51.5 -103.5t29.5 -60q2 -2 7 -15.5t11 -27.5 t12.5 -27.5t8.5 -15.5q6 -8 16 -28.5t20.5 -45t20.5 -45t16 -29.5q0 -23 -3 -36t-14 -19t-33.5 -7t-63.5 -1q-18 0 -42 1t-44.5 8t-33.5 24.5t-13 50.5q-20 70 -41 131t-40.5 107.5t-39 74t-37.5 27.5q-31 0 -37 -15.5t-18 -25.5q-6 -6 -24.5 -56.5t-38 -108.5t-35 -105.5 t-15.5 -49.5q0 -29 -21.5 -39t-46.5 -20h-133q-14 2 -22 8q-8 4 -14.5 13.5t-6.5 23.5q0 12 4 21q43 72 76 144.5t70 149.5v-2l17 38q18 38 40.5 87t43 94.5t26.5 61.5q8 23 13 37t6 23.5t1 18.5v21l2 -2l2 2q0 6 -13 29t-29.5 54.5t-35 66.5t-26.5 63q-41 94 -92 198.5 t-109 215.5q-2 6 -2 18z" />
<glyph unicode="y" horiz-adv-x="921" d="M82 1384q0 31 38 36t79 5q6 0 21.5 1t30.5 -2t26.5 -16t11.5 -40q12 -37 32.5 -102.5t43 -135t48 -129t50.5 -79.5q27 0 26.5 2t6.5 6q12 20 33.5 71.5t43 113t41 121.5t29.5 97q0 33 25.5 67t64.5 34q12 -4 36 -1t47.5 3t40.5 -7.5t17 -27.5q0 -4 -5 -16.5t-11 -25.5 t-11 -26.5t-5 -15.5q0 -6 -16.5 -51t-42 -113t-55.5 -145.5t-57.5 -149.5t-49 -126t-27.5 -73q0 -10 -4 -25.5t-9.5 -31.5t-9.5 -31.5t-2 -27.5v-502q-4 0 -5 -7t-7 -14.5t-19.5 -13.5t-41.5 -6q-35 0 -73 7t-44 26v577q-2 4 -4 13q-4 12 -4 20q-12 39 -39 101.5t-56.5 132 t-55 135t-38.5 108.5q-35 53 -59.5 129t-40.5 135z" />
<glyph unicode="z" horiz-adv-x="935" d="M55 45q0 8 1 12t10 19q29 63 43 94t24 50.5t19.5 40t29 62.5t53 115.5t91.5 202.5l186 385l76 213h-498l-20 21q-2 4 -3 22t-2.5 39.5t-1.5 40v24.5q0 14 9.5 31t56.5 17q4 0 26.5 -1t48 -2t47 -2.5t28.5 -1.5q31 0 61.5 1.5t62.5 1.5q31 0 63 -2.5t64 -6.5q55 2 97.5 2 h72.5q49 0 76 -1t41 -2t20.5 -3t12.5 -2q0 -4 11 -11t11 -22q0 -27 -10 -54.5t-23.5 -50t-24.5 -36.5t-13 -14q-12 -31 -21.5 -52.5t-17.5 -40t-17.5 -37t-19.5 -44.5q0 -2 -5 -12.5t-11.5 -20.5t-11.5 -20.5t-5 -12.5q-29 -68 -52.5 -121t-54 -116.5t-71.5 -150.5 t-102 -220q-8 -8 -27.5 -64.5t-42.5 -119.5q16 0 30.5 1t30.5 1q31 0 63 -2t64 -7q55 2 97.5 2h72.5q49 0 76 -1t41 -2t20.5 -3t12.5 -2q6 -10 10 -19t8 -20v-65q0 -35 -12 -59.5t-59 -24.5q-18 0 -44 1t-76 2t-136 2t-224 1l-71 6q-6 -2 -15 -6h-133q-14 2 -22 8 q-8 4 -14.5 13.5t-6.5 23.5z" />
<glyph unicode="|" d="M113 -184q0 25 1 88t2 146t3 174t3 169t2 131.5t1 63.5q0 18 1 84.5t3 143.5t3 142.5t1 83.5q0 12 -1 58.5t-3 99.5t-3 100.5t-1 59.5q0 29 5 48t30 26h131q8 2 23.5 -11.5t15.5 -29.5v-40.5t-1 -45t-2 -71.5t-2 -120t-2 -189.5t-2.5 -279.5t-2.5 -390t-1 -523 q0 -25 -6 -34t-14 -12t-17.5 -5t-15.5 -11q-2 4 -25.5 1t-51 -3t-50 8.5t-24.5 34.5v103z" />
<glyph unicode="&#xa3;" horiz-adv-x="1282" d="M106 612q0 27 8.5 52.5t35.5 25.5h102q20 0 53 -1t74 -1q0 35 1 66.5t1 56.5h-211q-25 0 -34 6t-12 14.5t-5 17.5t-10 15q2 0 2 8q0 10 -2.5 28t-2.5 38q0 27 8.5 52.5t35.5 25.5h102h55.5t73.5 -2q-2 139 -4 233t-2 154q0 6 2 12t14 11.5t40 8.5t79 3q20 2 32.5 -1 t19.5 -7.5t13.5 -11.5t16.5 -15q0 -199 -6 -395q49 -2 81.5 -3.5t34.5 1.5h132q29 0 48 -5.5t25 -29.5v-131q0 -4 -4 -13.5t-14 -15.5h-133t-174 2q-2 -35 -3 -66.5t-1 -64.5q53 -2 87.5 -3t36.5 1h132q29 0 48 -5t25 -30v-131q0 -4 -4 -13.5t-14 -15.5h-136t-180 2 q-2 -47 -2 -88v-78q-2 -35 4.5 -56t15.5 -32.5t19.5 -15.5t14.5 -4q27 0 107.5 6t215.5 6q10 0 50 2t85 2t82 -6t41 -24q4 -4 -1 -44t-5 -118q2 -4 -1 -9.5t-16.5 -11.5t-40 -10t-71.5 -4q-39 0 -80 1t-112.5 3t-187.5 3t-302 1q-10 6 -14 11.5t-5 12.5t-1 20.5v35.5v52 t1 92.5t2 120t3 132.5h-205q-25 0 -34 6.5t-12 14.5t-5 17t-10 16q2 0 2 8q0 10 -2.5 27.5t-2.5 37.5z" />
<glyph unicode="&#xa5;" horiz-adv-x="921" d="M61 594q0 27 8.5 52.5t34.5 25.5h103q25 0 65.5 -1t87.5 -3q-10 27 -22 58.5t-27 66.5h-186q-25 0 -34 6t-12 14t-5 17.5t-11 15.5q2 0 3 8q0 10 -2.5 27.5t-2.5 38.5q0 27 8.5 52t34.5 25h103h18q-14 35 -25.5 67t-17.5 56q-35 53 -59.5 129t-40.5 135q0 31 38 36t79 5 q6 0 21.5 1t30.5 -2t26.5 -16t11.5 -40q10 -29 23.5 -76t30.5 -100t35.5 -106.5t37.5 -94.5q29 0 55.5 -1t52.5 -3q14 37 32.5 84t35 95t30 92.5t21.5 74.5q0 33 25.5 67t64.5 34q12 -4 36 -1t47.5 3t40.5 -7.5t17 -27.5q0 -4 -5 -16.5t-11 -25.5t-11 -26.5t-5 -15.5 q0 -4 -10.5 -35t-28 -77t-40 -103.5t-44.5 -116.5h69q29 0 48.5 -5t25.5 -30v-131q0 -4 -4 -13t-14 -15h-201q-18 -47 -31.5 -81t-17.5 -51q29 0 45 -1t18 1h131q29 0 48.5 -5t25.5 -29v-131q0 -4 -4 -13.5t-14 -15.5h-275v-424q-4 0 -5 -7t-7 -14.5t-19.5 -13.5t-41.5 -6 q-35 0 -73 7t-44 26v434h-254q-25 0 -34 6t-12 14.5t-5 17.5t-11 15q2 0 3 8q0 10 -2.5 27.5t-2.5 38.5z" />
<glyph unicode="&#xad;" horiz-adv-x="305" d="M66 903q0 18 18 30.5t84 12.5q4 0 12 -1t19 -3q10 -2 22 -2l17 -18v-23q0 -27 -1 -72t-2.5 -99t-2.5 -113.5t-1 -114.5q-4 -8 -16.5 -14.5t-24.5 -6.5q-16 -8 -36 -8q-23 0 -42.5 6t-31.5 10q-4 10 -6 58.5t-4 107t-2 111.5v74q2 6 2 20q0 12 -2 23.5t-2 21.5z" />
<glyph unicode="&#x2000;" horiz-adv-x="777" />
<glyph unicode="&#x2001;" horiz-adv-x="1554" />
<glyph unicode="&#x2002;" horiz-adv-x="777" />
<glyph unicode="&#x2003;" horiz-adv-x="1554" />
<glyph unicode="&#x2004;" horiz-adv-x="518" />
<glyph unicode="&#x2005;" horiz-adv-x="388" />
<glyph unicode="&#x2006;" horiz-adv-x="259" />
<glyph unicode="&#x2007;" horiz-adv-x="259" />
<glyph unicode="&#x2008;" horiz-adv-x="194" />
<glyph unicode="&#x2009;" horiz-adv-x="310" />
<glyph unicode="&#x200a;" horiz-adv-x="86" />
<glyph unicode="&#x2010;" horiz-adv-x="305" d="M66 903q0 18 18 30.5t84 12.5q4 0 12 -1t19 -3q10 -2 22 -2l17 -18v-23q0 -27 -1 -72t-2.5 -99t-2.5 -113.5t-1 -114.5q-4 -8 -16.5 -14.5t-24.5 -6.5q-16 -8 -36 -8q-23 0 -42.5 6t-31.5 10q-4 10 -6 58.5t-4 107t-2 111.5v74q2 6 2 20q0 12 -2 23.5t-2 21.5z" />
<glyph unicode="&#x2011;" horiz-adv-x="305" d="M66 903q0 18 18 30.5t84 12.5q4 0 12 -1t19 -3q10 -2 22 -2l17 -18v-23q0 -27 -1 -72t-2.5 -99t-2.5 -113.5t-1 -114.5q-4 -8 -16.5 -14.5t-24.5 -6.5q-16 -8 -36 -8q-23 0 -42.5 6t-31.5 10q-4 10 -6 58.5t-4 107t-2 111.5v74q2 6 2 20q0 12 -2 23.5t-2 21.5z" />
<glyph unicode="&#x2012;" horiz-adv-x="305" d="M66 903q0 18 18 30.5t84 12.5q4 0 12 -1t19 -3q10 -2 22 -2l17 -18v-23q0 -27 -1 -72t-2.5 -99t-2.5 -113.5t-1 -114.5q-4 -8 -16.5 -14.5t-24.5 -6.5q-16 -8 -36 -8q-23 0 -42.5 6t-31.5 10q-4 10 -6 58.5t-4 107t-2 111.5v74q2 6 2 20q0 12 -2 23.5t-2 21.5z" />
<glyph unicode="&#x2013;" horiz-adv-x="1003" d="M115 858q0 27 8 52.5t35 25.5h102q27 0 70 -1t92 -3t100 -3t92 -3t68 -2h29h131q29 0 48 -5.5t25 -29.5v-131q0 -4 -4 -13.5t-14 -15.5q-104 0 -276 1t-443 1q-25 0 -34 6t-12 14.5t-5 17.5t-10 15q2 0 2 9q0 10 -2 27.5t-2 37.5z" />
<glyph unicode="&#x2014;" horiz-adv-x="1433" d="M94 838q0 27 8.5 52t34.5 25h103q25 0 101.5 -1t175.5 -3t209 -3t201 -3t150.5 -2h61.5h131q29 0 48 -5t25 -30v-131q0 -4 -4 -13t-14 -15h-109.5h-174t-217 1t-235.5 1h-229.5h-201.5q-25 0 -34 6t-12 14t-5.5 17.5t-10.5 15.5q2 0 2 8q0 10 -2 27.5t-2 38.5z" />
<glyph unicode="&#x2018;" horiz-adv-x="448" d="M90 1042q0 2 1 4.5t1 6.5q18 98 35 181.5t31 149.5q12 35 55 41v2l4 -2q20 6 49 7q47 0 65.5 -15.5t18.5 -50.5q0 -37 -12 -111.5t-35 -173.5v-6q0 -20 -12 -33q-6 -6 -12 -6l-164 -10q0 -2 -2 -2h-7q-4 0 -10 4t-6 14z" />
<glyph unicode="&#x2019;" horiz-adv-x="448" d="M90 1090q0 37 12.5 111.5t34.5 172.5v6q0 12 4 19.5t9 11.5q6 6 12 8l164 11h2q2 0 3 1t3 1q4 0 10 -4.5t6 -14.5q0 -2 -1 -4t-1 -6q-18 -98 -34.5 -182t-30.5 -150q-12 -35 -56 -41v-2l-4 2q-23 -6 -49 -6q-47 0 -65.5 15.5t-18.5 50.5z" />
<glyph unicode="&#x201c;" horiz-adv-x="688" d="M78 1047q0 2 1 4t1 6q18 98 34.5 182t30.5 150q12 35 56 41v2l4 -2q20 6 49 6q47 0 65.5 -15.5t18.5 -50.5q0 -37 -12.5 -111.5t-34.5 -173.5v-6q0 -20 -12 -32q-6 -6 -13 -7l-164 -10q0 -2 -2 -2h-6q-4 0 -10 4t-6 15zM365 1047q0 2 1 4t1 6q18 98 34.5 182t30.5 150 q12 35 55 41v2l5 -2q20 6 49 6q47 0 65.5 -15.5t18.5 -50.5q0 -37 -12.5 -111.5t-34.5 -173.5v-6q0 -20 -13 -32q-6 -6 -12 -7l-164 -10q0 -2 -2 -2h-6q-4 0 -10 4t-6 15z" />
<glyph unicode="&#x201d;" horiz-adv-x="688" d="M78 1094q0 37 12 111.5t35 172.5v6q0 12 4 19.5t8 11.5q6 6 13 8l163 11h2q2 0 3 1t4 1q4 0 10 -4.5t6 -14.5q0 -2 -1 -4t-1 -6q-18 -98 -35 -182t-31 -150q-12 -35 -55 -41v-2l-4 2q-23 -6 -49 -6q-47 0 -65.5 15.5t-18.5 50.5zM365 1094q0 37 12 111.5t35 172.5v6 q0 12 4 19.5t8 11.5q6 6 12 8l164 11h2q2 0 3 1t3 1q4 0 10.5 -4.5t6.5 -14.5q0 -2 -1 -4t-1 -6q-18 -98 -35 -182t-31 -150q-12 -35 -55 -41v-2l-4 2q-23 -6 -49 -6q-47 0 -65.5 15.5t-18.5 50.5z" />
<glyph unicode="&#x2026;" horiz-adv-x="1302" d="M113 41l12 156q0 29 5 48t30 25h131h4q10 0 18.5 -17t8.5 -89q0 -20 -1.5 -46t-3.5 -57q-2 -25 -8 -34t-14 -12t-16.5 -5t-14.5 -10q0 2 -8 2q-10 0 -27.5 -2t-38.5 -2q-29 0 -52 8t-25 35zM547 41l12 156q0 29 5 48t30 25h131h4q10 0 18.5 -17t8.5 -89q0 -20 -1 -46 t-3 -57q-2 -25 -8.5 -34t-14.5 -12t-16 -5t-15 -10q0 2 -8 2q-10 0 -27.5 -2t-37.5 -2q-29 0 -52.5 8t-25.5 35zM981 41l12 156q0 29 5.5 48t29.5 25h131h4q10 0 18.5 -17t8.5 -89q0 -20 -1 -46t-3 -57q-2 -25 -8.5 -34t-14.5 -12t-16 -5t-14 -10q0 2 -9 2q-10 0 -27.5 -2 t-37.5 -2q-29 0 -52.5 8t-25.5 35z" />
<glyph unicode="&#x202f;" horiz-adv-x="310" />
<glyph unicode="&#x205f;" horiz-adv-x="388" />
<glyph unicode="&#x20ac;" horiz-adv-x="1167" d="M61 561q0 27 8.5 52.5t34.5 25.5h103q20 0 50 -1t67 -1v123h-199q-25 0 -34 6t-12 14t-5 17.5t-11 15.5q2 0 3 8q0 10 -2.5 27.5t-2.5 38.5q0 27 8.5 52.5t34.5 25.5h103h56.5t74.5 -2q6 35 10 73.5t10.5 74.5t16.5 66.5t31 51.5v-2q2 0 14 32.5t49 70.5t101.5 71 t170.5 33q35 0 68 -5.5t70 -21.5q10 0 23 -8t26.5 -18.5t25 -20.5t17.5 -14q74 -55 73 -109q0 -39 -33.5 -63.5t-84.5 -24.5q-23 0 -56.5 16.5t-107.5 57.5q-41 0 -62.5 -5.5t-36 -15.5t-30 -25.5t-43.5 -35.5q-23 -41 -35 -90.5t-20 -96.5q37 -2 64.5 -3t43.5 -1h10 q2 0 4 2h131q29 0 48.5 -5t25.5 -29v-132q0 -4 -4 -13t-14 -15h-137t-183 2q0 -29 -1 -60.5t-1 -70.5q39 -2 71 -3t48 -1h12q2 0 4 2h131q29 0 48.5 -5.5t25.5 -29.5v-131q0 -4 -4 -13.5t-14 -15.5h-131t-174 2q4 -20 4 -31q0 -20 7 -37.5t16 -33t16.5 -28.5t7.5 -23 q6 -33 60.5 -51.5t115.5 -18.5q10 0 28.5 16.5t34.5 18.5q16 16 23.5 29.5t17.5 25.5l209 -18q-12 -33 -22 -73t-49 -79q-35 -47 -76 -73.5t-86 -39t-92 -15.5t-95 -3q-14 0 -35.5 10t-39.5 10q-31 14 -51.5 24.5t-38 23t-34 32t-40.5 52.5q0 2 -8.5 16t-19.5 31.5t-19 36 t-8 30.5q-10 39 -18.5 83t-12.5 85h-209q-25 0 -34 6t-12 14.5t-5 17.5t-11 15q2 0 3 9q0 10 -2.5 27.5t-2.5 37.5z" />
<glyph unicode="&#x25fc;" horiz-adv-x="1413" d="M0 0v1413h1413v-1413h-1413z" />
</font>
</defs>
</svg>
